<svg xmlns="http://www.w3.org/2000/svg" xmlns:xlink="http://www.w3.org/1999/xlink" width="1920" height="1080" viewBox="0 0 1920 1080"><defs><style>.a{clip-path:url(#v);}.b,.d,.k{fill:#fff;}.c,.e,.g,.h,.j{fill:#fe798c;}.d{font-size:32px;font-family:Poppins-Regular, Poppins;}.e{font-size:78px;}.e,.g,.h{font-family:BebasNeue-Regular, Bebas Neue;}.f{fill:#322153;}.g{font-size:48px;}.h{font-size:68px;}.i,.j{stroke:none;}.l{filter:url(#s);}.m{filter:url(#q);}.n{filter:url(#o);}.o{filter:url(#m);}.p{filter:url(#k);}.q{filter:url(#i);}.r{filter:url(#g);}.s{filter:url(#e);}.t{filter:url(#c);}.u{filter:url(#a);}</style><filter id="a" x="125" y="267" width="578" height="728" filterUnits="userSpaceOnUse"><feOffset dx="6" dy="6" input="SourceAlpha"/><feGaussianBlur stdDeviation="7" result="b"/><feFlood flood-opacity="0.404"/><feComposite operator="in" in2="b"/><feComposite in="SourceGraphic"/></filter><filter id="c" x="132" y="553" width="560" height="431" filterUnits="userSpaceOnUse"><feOffset dx="4" dy="4" input="SourceAlpha"/><feGaussianBlur stdDeviation="4" result="d"/><feFlood flood-opacity="0.204"/><feComposite operator="in" in2="d"/><feComposite in="SourceGraphic"/></filter><filter id="e" x="677" y="267" width="578" height="728" filterUnits="userSpaceOnUse"><feOffset dx="6" dy="6" input="SourceAlpha"/><feGaussianBlur stdDeviation="7" result="f"/><feFlood flood-opacity="0.404"/><feComposite operator="in" in2="f"/><feComposite in="SourceGraphic"/></filter><filter id="g" x="684" y="553" width="560" height="431" filterUnits="userSpaceOnUse"><feOffset dx="4" dy="4" input="SourceAlpha"/><feGaussianBlur stdDeviation="4" result="h"/><feFlood flood-opacity="0.204"/><feComposite operator="in" in2="h"/><feComposite in="SourceGraphic"/></filter><filter id="i" x="1229" y="267" width="578" height="728" filterUnits="userSpaceOnUse"><feOffset dx="6" dy="6" input="SourceAlpha"/><feGaussianBlur stdDeviation="7" result="j"/><feFlood flood-opacity="0.404"/><feComposite operator="in" in2="j"/><feComposite in="SourceGraphic"/></filter><filter id="k" x="1236" y="553" width="560" height="431" filterUnits="userSpaceOnUse"><feOffset dx="4" dy="4" input="SourceAlpha"/><feGaussianBlur stdDeviation="4" result="l"/><feFlood flood-opacity="0.204"/><feComposite operator="in" in2="l"/><feComposite in="SourceGraphic"/></filter><filter id="m" x="224" y="434" width="376" height="117" filterUnits="userSpaceOnUse"><feOffset dx="4" dy="4" input="SourceAlpha"/><feGaussianBlur stdDeviation="4" result="n"/><feFlood flood-opacity="0.404"/><feComposite operator="in" in2="n"/><feComposite in="SourceGraphic"/></filter><filter id="o" x="812" y="438" width="304" height="132" filterUnits="userSpaceOnUse"><feOffset dx="4" dy="4" input="SourceAlpha"/><feGaussianBlur stdDeviation="4" result="p"/><feFlood flood-opacity="0.404"/><feComposite operator="in" in2="p"/><feComposite in="SourceGraphic"/></filter><filter id="q" x="1285" y="442" width="462" height="105" filterUnits="userSpaceOnUse"><feOffset dx="4" dy="4" input="SourceAlpha"/><feGaussianBlur stdDeviation="4" result="r"/><feFlood flood-opacity="0.404"/><feComposite operator="in" in2="r"/><feComposite in="SourceGraphic"/></filter><filter id="s" x="132" y="105" width="1664" height="113" filterUnits="userSpaceOnUse"><feOffset dx="4" dy="4" input="SourceAlpha"/><feGaussianBlur stdDeviation="4" result="t"/><feFlood flood-opacity="0.404"/><feComposite operator="in" in2="t"/><feComposite in="SourceGraphic"/></filter><clipPath id="v"><rect width="1920" height="1080"/></clipPath></defs><g id="u" class="a"><rect class="k" width="1920" height="1080"/><g class="u" transform="matrix(1, 0, 0, 1, 0, 0)"><g class="b" transform="translate(140 282)"><path class="i" d="M 496 684 L 40 684 C 34.86918258666992 684 29.89281845092773 682.9955444335938 25.20927238464355 681.0145263671875 C 20.68454551696777 679.1007080078125 16.62045478820801 676.3605346679688 13.12990951538086 672.8701171875 C 9.63945484161377 669.3795166015625 6.899272918701172 665.3154296875 4.985454559326172 660.7907104492188 C 3.004454612731934 656.107177734375 2 651.1307983398438 2 646 L 2 40 C 2 34.86918258666992 3.004454612731934 29.89281845092773 4.985454559326172 25.20927238464355 C 6.899272918701172 20.68454551696777 9.63945484161377 16.62045478820801 13.12990951538086 13.12990951538086 C 16.62045478820801 9.63945484161377 20.68454551696777 6.899272918701172 25.20927238464355 4.985454559326172 C 29.89281845092773 3.004454612731934 34.86918258666992 2 40 2 L 496 2 C 501.1308288574219 2 506.107177734375 3.004454612731934 510.7907409667969 4.985454559326172 C 515.3154296875 6.899272918701172 519.3795166015625 9.63945484161377 522.8701171875 13.12990951538086 C 526.3605346679688 16.62045478820801 529.1007080078125 20.68454551696777 531.0145263671875 25.20927238464355 C 532.9955444335938 29.89281845092773 534 34.86918258666992 534 40 L 534 646 C 534 651.1307983398438 532.9955444335938 656.107177734375 531.0145263671875 660.7907104492188 C 529.1007080078125 665.3154296875 526.3605346679688 669.3795166015625 522.8701171875 672.8701171875 C 519.3795166015625 676.3605346679688 515.3154296875 679.1007080078125 510.7907409667969 681.0145263671875 C 506.107177734375 682.9955444335938 501.1308288574219 684 496 684 Z"/><path class="j" d="M 40 4 C 35.13827514648438 4 30.42410278320312 4.9512939453125 25.98846435546875 6.82745361328125 C 21.7020263671875 8.640380859375 17.85162353515625 11.23675537109375 14.544189453125 14.544189453125 C 11.23675537109375 17.85162353515625 8.640380859375 21.7020263671875 6.82745361328125 25.98846435546875 C 4.9512939453125 30.424072265625 4 35.13824462890625 4 40 L 4 646 C 4 650.8617553710938 4.9512939453125 655.575927734375 6.82745361328125 660.0115356445312 C 8.640380859375 664.2979736328125 11.23675537109375 668.1483764648438 14.544189453125 671.455810546875 C 17.85162353515625 674.7632446289062 21.7020263671875 677.359619140625 25.98846435546875 679.1725463867188 C 30.42410278320312 681.0487060546875 35.13827514648438 682 40 682 L 496 682 C 500.8617248535156 682 505.5758972167969 681.0487060546875 510.0115356445312 679.1725463867188 C 514.2979736328125 677.359619140625 518.1483764648438 674.7632446289062 521.455810546875 671.455810546875 C 524.7632446289062 668.1483764648438 527.359619140625 664.2979736328125 529.1725463867188 660.0115356445312 C 531.0487060546875 655.575927734375 532 650.8617553710938 532 646 L 532 40 C 532 35.13824462890625 531.0487060546875 30.424072265625 529.1725463867188 25.98846435546875 C 527.359619140625 21.7020263671875 524.7632446289062 17.85162353515625 521.455810546875 14.544189453125 C 518.1483764648438 11.23675537109375 514.2979736328125 8.640380859375 510.0115356445312 6.82745361328125 C 505.5758972167969 4.9512939453125 500.8617248535156 4 496 4 L 40 4 M 40 0 L 496 0 C 518.0913696289062 0 536 17.90863037109375 536 40 L 536 646 C 536 668.0913696289062 518.0913696289062 686 496 686 L 40 686 C 17.90863037109375 686 0 668.0913696289062 0 646 L 0 40 C 0 17.90863037109375 17.90863037109375 0 40 0 Z"/></g></g><g class="t" transform="matrix(1, 0, 0, 1, 0, 0)"><path class="c" d="M0,0H536V367a40,40,0,0,1-40,40H40A40,40,0,0,1,0,367Z" transform="translate(140 561)"/></g><text class="d" transform="translate(170 643)"><tspan x="17.136" y="34">A interação não é realizada </tspan><tspan x="25.84" y="82">uma única vez. A empresa </tspan><tspan x="52.784" y="130">deve se organizar para </tspan><tspan x="0.192" y="178">interagir com os clientes com </tspan><tspan x="147.808" y="226">frequência.</tspan></text><g class="s" transform="matrix(1, 0, 0, 1, 0, 0)"><g class="b" transform="translate(692 282)"><path class="i" d="M 496 684 L 40 684 C 34.86918258666992 684 29.89281845092773 682.9955444335938 25.20927238464355 681.0145263671875 C 20.68454551696777 679.1007080078125 16.62045478820801 676.3605346679688 13.12990951538086 672.8701171875 C 9.63945484161377 669.3795166015625 6.899272918701172 665.3154296875 4.985454559326172 660.7907104492188 C 3.004454612731934 656.107177734375 2 651.1307983398438 2 646 L 2 40 C 2 34.86918258666992 3.004454612731934 29.89281845092773 4.985454559326172 25.20927238464355 C 6.899272918701172 20.68454551696777 9.63945484161377 16.62045478820801 13.12990951538086 13.12990951538086 C 16.62045478820801 9.63945484161377 20.68454551696777 6.899272918701172 25.20927238464355 4.985454559326172 C 29.89281845092773 3.004454612731934 34.86918258666992 2 40 2 L 496 2 C 501.1308288574219 2 506.107177734375 3.004454612731934 510.7907409667969 4.985454559326172 C 515.3154296875 6.899272918701172 519.3795166015625 9.63945484161377 522.8701171875 13.12990951538086 C 526.3605346679688 16.62045478820801 529.1007080078125 20.68454551696777 531.0145263671875 25.20927238464355 C 532.9955444335938 29.89281845092773 534 34.86918258666992 534 40 L 534 646 C 534 651.1307983398438 532.9955444335938 656.107177734375 531.0145263671875 660.7907104492188 C 529.1007080078125 665.3154296875 526.3605346679688 669.3795166015625 522.8701171875 672.8701171875 C 519.3795166015625 676.3605346679688 515.3154296875 679.1007080078125 510.7907409667969 681.0145263671875 C 506.107177734375 682.9955444335938 501.1308288574219 684 496 684 Z"/><path class="j" d="M 40 4 C 35.13827514648438 4 30.42410278320312 4.9512939453125 25.98846435546875 6.82745361328125 C 21.7020263671875 8.640380859375 17.85162353515625 11.23675537109375 14.544189453125 14.544189453125 C 11.23675537109375 17.85162353515625 8.640380859375 21.7020263671875 6.82745361328125 25.98846435546875 C 4.9512939453125 30.424072265625 4 35.13824462890625 4 40 L 4 646 C 4 650.8617553710938 4.9512939453125 655.575927734375 6.82745361328125 660.0115356445312 C 8.640380859375 664.2979736328125 11.23675537109375 668.1483764648438 14.544189453125 671.455810546875 C 17.85162353515625 674.7632446289062 21.7020263671875 677.359619140625 25.98846435546875 679.1725463867188 C 30.42410278320312 681.0487060546875 35.13827514648438 682 40 682 L 496 682 C 500.8617248535156 682 505.5758972167969 681.0487060546875 510.0115356445312 679.1725463867188 C 514.2979736328125 677.359619140625 518.1483764648438 674.7632446289062 521.455810546875 671.455810546875 C 524.7632446289062 668.1483764648438 527.359619140625 664.2979736328125 529.1725463867188 660.0115356445312 C 531.0487060546875 655.575927734375 532 650.8617553710938 532 646 L 532 40 C 532 35.13824462890625 531.0487060546875 30.424072265625 529.1725463867188 25.98846435546875 C 527.359619140625 21.7020263671875 524.7632446289062 17.85162353515625 521.455810546875 14.544189453125 C 518.1483764648438 11.23675537109375 514.2979736328125 8.640380859375 510.0115356445312 6.82745361328125 C 505.5758972167969 4.9512939453125 500.8617248535156 4 496 4 L 40 4 M 40 0 L 496 0 C 518.0913696289062 0 536 17.90863037109375 536 40 L 536 646 C 536 668.0913696289062 518.0913696289062 686 496 686 L 40 686 C 17.90863037109375 686 0 668.0913696289062 0 646 L 0 40 C 0 17.90863037109375 17.90863037109375 0 40 0 Z"/></g></g><g class="r" transform="matrix(1, 0, 0, 1, 0, 0)"><path class="c" d="M0,0H536V367a40,40,0,0,1-40,40H40A40,40,0,0,1,0,367Z" transform="translate(692 561)"/></g><text class="d" transform="translate(722 666)"><tspan x="57.904" y="34">A empresa e o usuário </tspan><tspan x="29.472" y="82">trocam ideias na primeira </tspan><tspan x="20.208" y="130">pessoa, com interação dos </tspan><tspan x="152.864" y="178">dois lados.</tspan></text><g class="q" transform="matrix(1, 0, 0, 1, 0, 0)"><g class="b" transform="translate(1244 282)"><path class="i" d="M 496 684 L 40 684 C 34.86918258666992 684 29.89281845092773 682.9955444335938 25.20927238464355 681.0145263671875 C 20.68454551696777 679.1007080078125 16.62045478820801 676.3605346679688 13.12990951538086 672.8701171875 C 9.63945484161377 669.3795166015625 6.899272918701172 665.3154296875 4.985454559326172 660.7907104492188 C 3.004454612731934 656.107177734375 2 651.1307983398438 2 646 L 2 40 C 2 34.86918258666992 3.004454612731934 29.89281845092773 4.985454559326172 25.20927238464355 C 6.899272918701172 20.68454551696777 9.63945484161377 16.62045478820801 13.12990951538086 13.12990951538086 C 16.62045478820801 9.63945484161377 20.68454551696777 6.899272918701172 25.20927238464355 4.985454559326172 C 29.89281845092773 3.004454612731934 34.86918258666992 2 40 2 L 496 2 C 501.1308288574219 2 506.107177734375 3.004454612731934 510.7907409667969 4.985454559326172 C 515.3154296875 6.899272918701172 519.3795166015625 9.63945484161377 522.8701171875 13.12990951538086 C 526.3605346679688 16.62045478820801 529.1007080078125 20.68454551696777 531.0145263671875 25.20927238464355 C 532.9955444335938 29.89281845092773 534 34.86918258666992 534 40 L 534 646 C 534 651.1307983398438 532.9955444335938 656.107177734375 531.0145263671875 660.7907104492188 C 529.1007080078125 665.3154296875 526.3605346679688 669.3795166015625 522.8701171875 672.8701171875 C 519.3795166015625 676.3605346679688 515.3154296875 679.1007080078125 510.7907409667969 681.0145263671875 C 506.107177734375 682.9955444335938 501.1308288574219 684 496 684 Z"/><path class="j" d="M 40 4 C 35.13827514648438 4 30.42410278320312 4.9512939453125 25.98846435546875 6.82745361328125 C 21.7020263671875 8.640380859375 17.85162353515625 11.23675537109375 14.544189453125 14.544189453125 C 11.23675537109375 17.85162353515625 8.640380859375 21.7020263671875 6.82745361328125 25.98846435546875 C 4.9512939453125 30.424072265625 4 35.13824462890625 4 40 L 4 646 C 4 650.8617553710938 4.9512939453125 655.575927734375 6.82745361328125 660.0115356445312 C 8.640380859375 664.2979736328125 11.23675537109375 668.1483764648438 14.544189453125 671.455810546875 C 17.85162353515625 674.7632446289062 21.7020263671875 677.359619140625 25.98846435546875 679.1725463867188 C 30.42410278320312 681.0487060546875 35.13827514648438 682 40 682 L 496 682 C 500.8617248535156 682 505.5758972167969 681.0487060546875 510.0115356445312 679.1725463867188 C 514.2979736328125 677.359619140625 518.1483764648438 674.7632446289062 521.455810546875 671.455810546875 C 524.7632446289062 668.1483764648438 527.359619140625 664.2979736328125 529.1725463867188 660.0115356445312 C 531.0487060546875 655.575927734375 532 650.8617553710938 532 646 L 532 40 C 532 35.13824462890625 531.0487060546875 30.424072265625 529.1725463867188 25.98846435546875 C 527.359619140625 21.7020263671875 524.7632446289062 17.85162353515625 521.455810546875 14.544189453125 C 518.1483764648438 11.23675537109375 514.2979736328125 8.640380859375 510.0115356445312 6.82745361328125 C 505.5758972167969 4.9512939453125 500.8617248535156 4 496 4 L 40 4 M 40 0 L 496 0 C 518.0913696289062 0 536 17.90863037109375 536 40 L 536 646 C 536 668.0913696289062 518.0913696289062 686 496 686 L 40 686 C 17.90863037109375 686 0 668.0913696289062 0 646 L 0 40 C 0 17.90863037109375 17.90863037109375 0 40 0 Z"/></g></g><g class="p" transform="matrix(1, 0, 0, 1, 0, 0)"><path class="c" d="M0,0H536V367a40,40,0,0,1-40,40H40A40,40,0,0,1,0,367Z" transform="translate(1244 561)"/></g><text class="d" transform="translate(1274 644)"><tspan x="29.696" y="34">Quando o cliente se sente </tspan><tspan x="41.264" y="82">próximo da empresa ela </tspan><tspan x="23.792" y="130">passa a se interessar mais </tspan><tspan x="34.048" y="178">pelos produtos e serviços </tspan><tspan x="122.56" y="226">apresentados.</tspan></text><g transform="translate(0 -17241)"><g class="o" transform="matrix(1, 0, 0, 1, 0, 17241)"><text class="e" transform="translate(408 512)"><tspan x="-175.149" y="0">peridiocidade</tspan></text></g><g transform="translate(350.696 17543)"><path class="c" d="M122.1,40H27.854A7.877,7.877,0,0,0,20,47.854V142.1a7.877,7.877,0,0,0,7.854,7.854H122.1a7.877,7.877,0,0,0,7.854-7.854V47.854A7.877,7.877,0,0,0,122.1,40Zm0,98.172a3.938,3.938,0,0,1-3.927,3.927H31.781a3.938,3.938,0,0,1-3.927-3.927V51.781a3.938,3.938,0,0,1,3.927-3.927h86.391a3.938,3.938,0,0,1,3.927,3.927Z" transform="translate(-18.037 -30.183)"/><g transform="translate(0)"><path class="f" d="M116.062,0H21.817A9.722,9.722,0,0,0,12,9.817v94.245a9.722,9.722,0,0,0,9.817,9.817h94.245a9.722,9.722,0,0,0,9.817-9.817V9.817A9.722,9.722,0,0,0,116.062,0Zm5.89,104.062a5.785,5.785,0,0,1-5.89,5.89H21.817a5.785,5.785,0,0,1-5.89-5.89V9.817a5.785,5.785,0,0,1,5.89-5.89h94.245a5.785,5.785,0,0,1,5.89,5.89Z" transform="translate(-12)"/><path class="f" d="M238.753,128.589a1.9,1.9,0,0,0-2.749,0l-16.689,16.689a10.555,10.555,0,0,0-5.5-1.571A9.722,9.722,0,0,0,204,153.525a9.876,9.876,0,0,0,7.854,9.621v6.087a1.963,1.963,0,0,0,3.927,0v-6.087a9.876,9.876,0,0,0,7.854-9.621,10.555,10.555,0,0,0-1.571-5.5l16.689-16.689A1.9,1.9,0,0,0,238.753,128.589Zm-30.826,24.936a5.785,5.785,0,0,1,5.89-5.89,5.435,5.435,0,0,1,2.552.589l-3.927,3.927a1.783,1.783,0,0,0-.589,1.374v5.5A5.719,5.719,0,0,1,207.927,153.525Zm11.781,0a5.719,5.719,0,0,1-3.927,5.5V154.31l3.338-3.338A5.435,5.435,0,0,1,219.708,153.525Z" transform="translate(-156.877 -96.585)"/><circle class="f" cx="4" cy="4" r="4" transform="translate(15.304 15.885)"/><circle class="f" cx="4" cy="4" r="4" transform="translate(52.304 15.885)"/><circle class="f" cx="4" cy="4" r="4" transform="translate(90.304 15.885)"/><ellipse class="f" cx="4" cy="3.5" rx="4" ry="3.5" transform="translate(15.304 90.885)"/><ellipse class="f" cx="4" cy="3.5" rx="4" ry="3.5" transform="translate(52.304 90.885)"/><ellipse class="f" cx="4" cy="3.5" rx="4" ry="3.5" transform="translate(90.304 90.885)"/><ellipse class="f" cx="4" cy="4.5" rx="4" ry="4.5" transform="translate(90.304 52.885)"/><ellipse class="f" cx="4" cy="4.5" rx="4" ry="4.5" transform="translate(15.304 52.885)"/><path class="f" d="M127.045,288.589a1.9,1.9,0,0,0-2.749,0L108.589,304.3a1.9,1.9,0,0,0,0,2.749,1.9,1.9,0,0,0,2.749,0l15.707-15.707A1.9,1.9,0,0,0,127.045,288.589Z" transform="translate(-84.439 -217.316)"/><path class="f" d="M148.443,320.589l-7.854,7.854a1.9,1.9,0,0,0,0,2.749,1.9,1.9,0,0,0,2.749,0l7.854-7.854a1.944,1.944,0,1,0-2.749-2.749Z" transform="translate(-108.585 -241.463)"/><path class="f" d="M108.589,299.192a1.9,1.9,0,0,0,2.749,0l7.854-7.854a1.944,1.944,0,0,0-2.749-2.749l-7.854,7.854A1.9,1.9,0,0,0,108.589,299.192Z" transform="translate(-84.439 -217.316)"/><path class="f" d="M45.963,90.9a1.855,1.855,0,0,0,1.963-1.963V37.89a1.855,1.855,0,0,1,1.963-1.963h58.9a1.963,1.963,0,0,0,0-3.927H49.89A5.785,5.785,0,0,0,44,37.89V88.94A1.855,1.855,0,0,0,45.963,90.9Z" transform="translate(-36.146 -24.146)"/><path class="f" d="M136.282,32H116.647a1.963,1.963,0,0,0,0,3.927h19.634a1.855,1.855,0,0,1,1.963,1.963v86.391a1.855,1.855,0,0,1-1.963,1.963H49.89a1.855,1.855,0,0,1-1.963-1.963V96.793a1.963,1.963,0,0,0-3.927,0v27.488a5.785,5.785,0,0,0,5.89,5.89h86.391a5.785,5.785,0,0,0,5.89-5.89V37.89A5.785,5.785,0,0,0,136.282,32Z" transform="translate(-36.146 -24.146)"/><path class="f" d="M204,129.963a1.855,1.855,0,0,0,1.963,1.963h15.707a1.963,1.963,0,1,0,0-3.927H205.963A1.855,1.855,0,0,0,204,129.963Z" transform="translate(-156.877 -96.585)"/></g></g></g><g transform="translate(0 -17241)"><g class="n" transform="matrix(1, 0, 0, 1, 0, 17241)"><text class="g" transform="translate(960 489)"><tspan x="-114.984" y="0">Uma conversa </tspan><tspan x="-139.872" y="51">entre conhecidos</tspan></text></g><g transform="translate(891.194 17543.369)"><path class="c" d="M223.6,72H140.61A4.624,4.624,0,0,0,136,76.61V99.663h50.715a4.624,4.624,0,0,1,4.611,4.61v32.273h9.221l18.442,18.442V136.547H223.6a4.624,4.624,0,0,0,4.61-4.61V76.61A4.624,4.624,0,0,0,223.6,72Z" transform="translate(-92.904 -60.474)"/><g transform="translate(0 0)"><path class="f" d="M7.118,135.338H9.49v17.223a2.152,2.152,0,0,0,1.424,2.214,1.387,1.387,0,0,0,.949.246,2.119,2.119,0,0,0,1.661-.738l18.269-18.945H92.532a7.124,7.124,0,0,0,7.118-7.381V105.813h6.169l18.269,18.945a2.119,2.119,0,0,0,1.661.738,1.387,1.387,0,0,0,.949-.246,2.368,2.368,0,0,0,1.424-2.214V105.813h2.373a7.124,7.124,0,0,0,7.118-7.381V39.381A7.124,7.124,0,0,0,130.493,32H45.079a7.124,7.124,0,0,0-7.118,7.381V61.525H7.118A7.124,7.124,0,0,0,0,68.906v59.05A7.124,7.124,0,0,0,7.118,135.338ZM42.707,39.381a2.284,2.284,0,0,1,2.373-2.46h85.414a2.284,2.284,0,0,1,2.373,2.46v59.05a2.284,2.284,0,0,1-2.373,2.46h-4.745a2.284,2.284,0,0,0-2.373,2.46v13.778l-14.947-15.5a2.119,2.119,0,0,0-1.661-.738H99.649V68.906a7.124,7.124,0,0,0-7.118-7.381H42.707ZM4.745,68.906a2.284,2.284,0,0,1,2.373-2.46H92.532a2.284,2.284,0,0,1,2.373,2.46v59.05a2.284,2.284,0,0,1-2.373,2.46H30.844a2.119,2.119,0,0,0-1.661.738l-14.947,15.5V132.878a2.284,2.284,0,0,0-2.373-2.46H7.118a2.284,2.284,0,0,1-2.373-2.46Z" transform="translate(0 -32)"/><path class="f" d="M66.305,196.611h36.884a2.305,2.305,0,0,0,0-4.611H66.305a2.305,2.305,0,0,0,0,4.611Z" transform="translate(-45.558 -142.662)"/><path class="f" d="M226.305,196.611h9.221a2.305,2.305,0,1,0,0-4.611h-9.221a2.305,2.305,0,1,0,0,4.611Z" transform="translate(-157.349 -142.662)"/><path class="f" d="M66.305,228.61H84.747a2.305,2.305,0,1,0,0-4.61H66.305a2.305,2.305,0,1,0,0,4.61Z" transform="translate(-45.558 -164.795)"/><path class="f" d="M189.968,224H162.305a2.305,2.305,0,1,0,0,4.61h27.663a2.305,2.305,0,1,0,0-4.61Z" transform="translate(-112.119 -164.795)"/><path class="f" d="M66.305,260.611h55.326a2.305,2.305,0,0,0,0-4.611H66.305a2.305,2.305,0,0,0,0,4.611Z" transform="translate(-45.558 -186.927)"/><path class="f" d="M66.305,292.61h9.221a2.305,2.305,0,1,0,0-4.61H66.305a2.305,2.305,0,1,0,0,4.61Z" transform="translate(-45.558 -209.059)"/><path class="f" d="M167.189,288H130.305a2.305,2.305,0,1,0,0,4.61h36.884a2.305,2.305,0,1,0,0-4.61Z" transform="translate(-89.553 -209.059)"/><path class="f" d="M233.494,98.305A2.178,2.178,0,0,0,231.189,96H194.305a2.305,2.305,0,1,0,0,4.611h36.884A2.178,2.178,0,0,0,233.494,98.305Z" transform="translate(-134.33 -76.265)"/><path class="f" d="M354.305,100.611h9.221a2.305,2.305,0,1,0,0-4.611h-9.221a2.305,2.305,0,1,0,0,4.611Z" transform="translate(-246.662 -76.265)"/><path class="f" d="M354.305,132.61h9.221a2.305,2.305,0,1,0,0-4.61h-9.221a2.305,2.305,0,1,0,0,4.61Z" transform="translate(-246.662 -98.397)"/><path class="f" d="M354.305,164.61h9.221a2.305,2.305,0,1,0,0-4.61h-9.221a2.305,2.305,0,1,0,0,4.61Z" transform="translate(-246.662 -120.53)"/><path class="f" d="M354.305,196.611h9.221a2.305,2.305,0,1,0,0-4.611h-9.221a2.305,2.305,0,1,0,0,4.611Z" transform="translate(-246.662 -142.662)"/></g></g></g><g transform="translate(0 -17241)"><g class="m" transform="matrix(1, 0, 0, 1, 0, 17241)"><text class="h" transform="translate(1512 511)"><tspan x="-218.62" y="0">Maior engajamento</tspan></text></g><g transform="translate(1464.51 17543.289)"><path class="c" d="M328.6,240.352l-4.16,8.32v41.6a8.345,8.345,0,0,0,8.32,8.32h8.32a8.345,8.345,0,0,0,8.32-8.32v-41.6l-4.16-8.32a4.16,4.16,0,0,0,0-8.32H328.6a4.16,4.16,0,0,0,0,8.32Z" transform="translate(-255.574 -171.7)"/><g transform="translate(0 0)"><path class="f" d="M350.271,288.032h0a2.085,2.085,0,0,0-2.08,2.08c0,8.528.208,22.465,0,24.545a1.827,1.827,0,0,0,.208,1.456,2.391,2.391,0,0,0,1.872,1.248h.416c1.872-.416,1.872-.416,1.664-27.042A2.14,2.14,0,0,0,350.271,288.032Z" transform="translate(-273.088 -213.139)"/><path class="f" d="M75.415,43.274l-7.28,58.451v.208a18.721,18.721,0,0,0,37.442,0v-.208L98.3,43.274a24.607,24.607,0,0,0,7.7-5.408c5.408-5.408,8.32-11.857,8.112-18.305C113.9,12.9,110.777,6.04,104.953.632a1.9,1.9,0,0,0-2.288-.416,1.819,1.819,0,0,0-1.248,1.872V17.481l-14.561,7.28L72.3,17.481V2.088A1.819,1.819,0,0,0,71.047.216a1.9,1.9,0,0,0-2.288.416C62.935,6.04,59.814,12.7,59.606,19.561c-.208,6.656,2.7,12.9,8.112,18.305A28.567,28.567,0,0,0,75.415,43.274ZM68.135,7.5V18.729A2,2,0,0,0,69.383,20.6l16.641,8.32a2.886,2.886,0,0,0,1.872,0l16.641-8.32a2.391,2.391,0,0,0,1.248-1.872V7.5a20.93,20.93,0,0,1,4.368,12.065c0,5.408-2.288,10.817-6.864,15.393a23.972,23.972,0,0,1-7.7,5.2,2.1,2.1,0,0,0-1.248,2.288l7.072,59.7a14.562,14.562,0,0,1-29.122,0l7.488-59.907a2.1,2.1,0,0,0-1.248-2.288,21.91,21.91,0,0,1-7.7-5.2,20.438,20.438,0,0,1-7.072-15.185A22.5,22.5,0,0,1,68.135,7.5Z" transform="translate(-59.596 0)"/><path class="f" d="M124.436,362.433a10.4,10.4,0,1,0,10.4-10.4A10.431,10.431,0,0,0,124.436,362.433Zm16.641,0a6.24,6.24,0,1,1-6.24-6.24A6.129,6.129,0,0,1,141.077,362.433Z" transform="translate(-107.577 -260.498)"/><path class="f" d="M158.516,205.795a1.965,1.965,0,0,0,2.08-2.08v-41.6a2.08,2.08,0,0,0-4.16,0v41.6A1.965,1.965,0,0,0,158.516,205.795Z" transform="translate(-131.256 -118.421)"/><path class="f" d="M316.644,67.844c-.208.208-.208.416-.208.832v41.6a10.3,10.3,0,0,0,10.4,10.4h8.32a10.3,10.3,0,0,0,10.4-10.4v-41.6c0-.416,0-.624-.208-.832l-3.12-6.032a6.4,6.4,0,0,0,3.328-5.408,6.129,6.129,0,0,0-6.24-6.24h-2.08V2.112a1.965,1.965,0,0,0-2.08-2.08h-8.32a1.965,1.965,0,0,0-2.08,2.08V49.955h-2.08a6.129,6.129,0,0,0-6.24,6.24,6,6,0,0,0,3.328,5.408l-3.12,6.24ZM333.077,4.192v4.16h-4.16V4.192h4.16Zm-4.16,8.32h4.16V49.955h-4.16Zm-6.24,41.6h16.641a2.08,2.08,0,0,1,0,4.16,2.482,2.482,0,0,0-1.872,1.04,1.889,1.889,0,0,0,0,2.08l3.952,7.9v38.9H326.837a2.08,2.08,0,1,0,0,4.16h14.145a6.059,6.059,0,0,1-5.824,4.16h-8.32a6.258,6.258,0,0,1-6.24-6.24V70.756h14.561a2.08,2.08,0,0,0,0-4.16H321.844l2.08-4.16h2.912a2.08,2.08,0,0,0,0-4.16h-4.16a2.08,2.08,0,1,1,0-4.16Z" transform="translate(-249.654 -0.024)"/></g></g></g><g class="l" transform="matrix(1, 0, 0, 1, 0, 0)"><text class="h" transform="translate(140 113)"><tspan x="173.762" y="61">O inbound marketing podem ser utilizadas em três ações:</tspan></text></g></g></svg>