<svg xmlns="http://www.w3.org/2000/svg" xmlns:xlink="http://www.w3.org/1999/xlink" width="1920" height="1080" viewBox="0 0 1920 1080"><defs><style>.a{clip-path:url(#f);}.b{fill:#e52659;}.c{fill:#3f3d56;}.d{fill:#f2f2f2;}.e{fill:none;stroke:#3f3d56;stroke-miterlimit:10;stroke-width:2px;}.f{fill:#2f2e41;}.g{fill:#9f616a;}.h{opacity:0.1;}.i{fill:#d0cde1;}.j{font-size:100px;font-family:BebasNeue-Regular, Bebas Neue;}.k{font-size:42px;font-family:Montserrat-Regular, Montserrat;}.l{fill:#fff;}.m{filter:url(#c);}.n{filter:url(#a);}</style><filter id="a" x="960" y="191" width="836" height="144" filterUnits="userSpaceOnUse"><feOffset dx="4" dy="4" input="SourceAlpha"/><feGaussianBlur stdDeviation="4" result="b"/><feFlood flood-opacity="0.396"/><feComposite operator="in" in2="b"/><feComposite in="SourceGraphic"/></filter><filter id="c" x="960" y="319" width="836" height="578" filterUnits="userSpaceOnUse"><feOffset dx="4" dy="4" input="SourceAlpha"/><feGaussianBlur stdDeviation="4" result="d"/><feFlood flood-opacity="0.396"/><feComposite operator="in" in2="d"/><feComposite in="SourceGraphic"/></filter><clipPath id="f"><rect width="1920" height="1080"/></clipPath></defs><g id="e" class="a"><rect class="l" width="1920" height="1080"/><g transform="translate(140 197.693)"><path class="b" d="M268.074,771.058c0,21.565-12.819,29.095-28.634,29.095q-.549,0-1.1-.012c-.733-.016-1.459-.051-2.176-.1-14.273-1.01-25.361-8.927-25.361-28.983,0-20.756,26.523-46.946,28.516-48.884l0,0,.115-.112S268.074,749.493,268.074,771.058Z" transform="translate(-178.35 -118.522)"/><path class="c" d="M239.07,796.854l10.473-14.634-10.5,16.241-.028,1.68c-.733-.016-1.459-.051-2.176-.1l1.129-21.576-.009-.167.019-.031.106-2.038-10.525-16.281L238.119,774.7l.024.433.853-16.3-9.011-16.823,9.121,13.962.888-33.8,0-.115v.112l-.148,26.651,8.971-10.565-9.007,12.861-.237,14.6,8.376-14.007-8.411,16.155-.133,8.114,12.16-19.5-12.205,22.327Z" transform="translate(-179.023 -118.522)"/><path class="d" d="M894.117,474.8c0,169.094-76.775,302.49-171.322,306.172-123.3,4.8-284.44-118.136-171.322-306.172,87.166-144.9,76.7-306.172,171.322-306.172S894.117,305.7,894.117,474.8Z" transform="translate(-190.506 -96.267)"/><rect class="b" width="244.279" height="212.137" transform="translate(359.87 468.423)"/><line class="e" x2="812" transform="translate(0 680.56)"/><path class="c" d="M734.727,93.235a23.388,23.388,0,0,0-9.386,44.81,20.711,20.711,0,0,1,.407-5.366c.449-1.9,3.007-12.748,3.007-12.748a8.928,8.928,0,0,1-.752-3.7c0-3.466,2-6.055,4.51-6.055,2.13,0,3.153,1.6,3.153,3.508,0,2.14-1.368,5.335-2.067,8.3a3.616,3.616,0,0,0,3.7,4.5c4.427,0,7.413-5.69,7.413-12.435,0-5.126-3.456-8.958-9.73-8.958a11.081,11.081,0,0,0-11.516,11.2,6.741,6.741,0,0,0,1.545,4.583,1.143,1.143,0,0,1,.334,1.305c-.115.428-.365,1.462-.48,1.879a.8.8,0,0,1-1.169.585c-3.268-1.336-4.792-4.907-4.792-8.937,0-6.64,5.607-14.606,16.715-14.606,8.927,0,14.8,6.463,14.8,13.4,0,9.177-5.105,16.026-12.622,16.026-2.527,0-4.9-1.368-5.711-2.913,0,0-1.357,5.387-1.65,6.431a19.44,19.44,0,0,1-2.349,5.011,23.39,23.39,0,1,0,6.64-45.823Z" transform="translate(-198.477 -93.235)"/><path class="c" d="M974.2,269.259a20.436,20.436,0,0,1-5.8,1.6,10.144,10.144,0,0,0,4.448-5.6,20.086,20.086,0,0,1-6.421,2.453,10.105,10.105,0,0,0-17.488,6.912,9.893,9.893,0,0,0,.261,2.307,28.646,28.646,0,0,1-20.839-10.576,10.128,10.128,0,0,0,3.143,13.51,9.873,9.873,0,0,1-4.594-1.263v.125a10.117,10.117,0,0,0,8.114,9.919,10.172,10.172,0,0,1-2.664.355,9.539,9.539,0,0,1-1.9-.188,10.124,10.124,0,0,0,9.449,7.026,20.266,20.266,0,0,1-12.56,4.333,20.5,20.5,0,0,1-2.412-.146,28.254,28.254,0,0,0,15.473,4.573c18.615,0,28.784-15.42,28.784-28.795,0-.439-.01-.877-.031-1.305A20.575,20.575,0,0,0,974.2,269.259Z" transform="translate(-207.066 -100.122)"/><path class="c" d="M569.325,124.252H533.661a2.214,2.214,0,0,0-2.213,2.213v35.664a2.214,2.214,0,0,0,2.213,2.213h17.832V148.473H546.7v-5.847h4.792V138.3c0-5.178,3.591-8,8.217-8,2.213,0,4.594.167,5.147.24v5.408h-3.685c-2.516,0-3,1.19-3,2.944v3.727h5.993l-.783,5.847h-5.21v15.869h11.15a2.214,2.214,0,0,0,2.213-2.213V126.465A2.214,2.214,0,0,0,569.325,124.252Z" transform="translate(-191.243 -94.482)"/><path class="c" d="M574.408,278.788a8.377,8.377,0,0,1,8.352,8.352v16.7a8.377,8.377,0,0,1-8.352,8.352H557.7a8.377,8.377,0,0,1-8.352-8.352v-16.7a8.377,8.377,0,0,1,8.352-8.352h16.7m0-3.341H557.7A11.728,11.728,0,0,0,546.01,287.14v16.7A11.728,11.728,0,0,0,557.7,315.538h16.7A11.728,11.728,0,0,0,586.1,303.844v-16.7A11.728,11.728,0,0,0,574.408,275.447Z" transform="translate(-191.829 -100.562)"/><path class="c" d="M577.333,287.42a2.5,2.5,0,1,1,1.774-.732A2.506,2.506,0,0,1,577.333,287.42Zm-10.858,1.67a6.682,6.682,0,1,1-6.682,6.682,6.682,6.682,0,0,1,6.682-6.682m0-3.341A10.023,10.023,0,1,0,576.5,295.772a10.023,10.023,0,0,0-10.023-10.023Z" transform="translate(-192.249 -100.842)"/><path class="c" d="M878.029,103.748H844.578a3.27,3.27,0,0,0-3.424,3.122v33.524a3.527,3.527,0,0,0,3.424,3.435h33.441a3.348,3.348,0,0,0,3.216-3.435V106.869a3.073,3.073,0,0,0-3.205-3.122Zm-24.451,33.409h-5.742V119.3h5.742ZM850.9,116.589h-.042a3.123,3.123,0,1,1,.042,0Zm23.658,20.568H868.82V127.4c0-2.339-.835-3.936-2.913-3.936a3.141,3.141,0,0,0-2.944,2.119,3.864,3.864,0,0,0-.2,1.409v10.169h-5.742V119.3h5.742v2.485a5.812,5.812,0,0,1,5.178-2.9c3.769,0,6.619,2.485,6.619,7.841Z" transform="translate(-203.697 -93.658)"/><path class="f" d="M713.772,361.354s40.644,1.1,47.356,3.547,9.714,19.906,9.714,19.906l-31.557,9.919-23.6-1.337-17.764,1.255,9.919-25.977Z" transform="translate(-197.938 -104.017)"/><path class="g" d="M716.095,347.458s2.674,10.328-3.261,17.641,25.513,33.371,25.513,33.371l16.59-2.852s-3.657-31.734,1.255-39.77S716.095,347.458,716.095,347.458Z" transform="translate(-198.507 -103.458)"/><path class="h" d="M716.095,347.458s2.674,10.328-3.261,17.641,25.513,33.371,25.513,33.371l16.59-2.852s-3.657-31.734,1.255-39.77S716.095,347.458,716.095,347.458Z" transform="translate(-198.507 -103.458)"/><path class="g" d="M652.7,568.843l-36.6,48.543,24.98,14.585,34.381-56.252Z" transform="translate(-24.774 -22.874)"/><path class="f" d="M803.753,712.977s-13.48-15.662-12.879-12.17-9.591,33.112-.109,35.977,90.8,10.464,91.915,1.282-24.258-15.608-24.258-15.608S843.346,707.969,840,709.443,803.753,712.977,803.753,712.977Z" transform="translate(-201.508 -117.647)"/><path class="g" d="M645.673,616.988,674.911,666.8l22.075-12.783L667.5,613.236Z" transform="translate(-25.964 -24.66)"/><path class="f" d="M868.825,586.765l-8.677,12.279s-41.366,57.452-36.973,62.091,22.689,22.17,31.994,18.773,42.362-62.118,42.362-62.118l-8.623-34.477Z" transform="translate(-202.961 -112.942)"/><path class="f" d="M685.019,571.994s9.264,17.286,32.744,23.139,48.011,17.818,48.884,17.668,3.343-1.474,3.943,2.019,7.04,9.578,7.04,9.578,25.936,88.136,35.841,88.231,30.261-7,30.684-9.769-30.329-92.775-30.63-94.521l-3.6-20.956s40.671,6.494,44.464,7.64,37.533,19.619,37.533,19.619,34.395-24.79,2.224-49.826-87.468-43.4-87.468-43.4l-19.838-5.58-17.289-1.032L767,505.043l-40.947,2.362-42.731,18.132Z" transform="translate(-197.351 -109.795)"/><circle class="g" cx="31.895" cy="31.895" r="31.895" transform="translate(509.814 200.768)"/><path class="i" d="M710.506,362.328l3.836-.659s6.929,26.677,28.362,31.084c0,0,10.576-12.67,10.125-14.807S761.2,364.4,765.9,370.787s-1.146,118.861,2.8,120.88,12.4,4.161,5.594,11.624-33.849,17.5-39.839,14.039-18.228-32.826-23.521-42.7-13.766-43.481-13.766-43.481-10.819-36.8-4.161-45.132S710.506,362.328,710.506,362.328Z" transform="translate(-197.653 -104.029)"/><path class="f" d="M739.9,500.635a181.937,181.937,0,0,1-3.654,23.292c-1.564,6.246-3.386,10.018-5.464,9.857-5.3-.4-7.714,7.382-8.957,16.35-1.329,9.514-1.329,20.367-2.057,24.2-.964,5.068-7.135,8.935-19.467,7.8a87.013,87.013,0,0,1-21.449-5.261c-16.65-6.053-16.157-55.145-13.371-91.572,1.7-22.328,4.264-39.91,4.264-39.91s-5.057-15.085-6.675-25.424a33.8,33.8,0,0,1-.482-5.71c.246-9.032,16.735-33.438,26.7-48.642s23.581-4.05,23.581-4.05l-4.736,14.292s7.339,11.325,7.393,22.1,17.571,18.557,23.86,23.774C743.335,425.015,743.238,468.782,739.9,500.635Z" transform="translate(-196.517 -103.867)"/><path class="f" d="M757.481,367.054s1.149,1.359,6.412.7c6.312-.795,14.99,1.389,17.006,7.415,3.7,11.051,14.121,56.006,14.121,56.006s4.339,51.395,6.29,62.746.982,21.406,2.906,27.369-18.992-11.119-26.7-8.9-12.661-26.591-11.692-36.646,1.787-20.983-.887-31.311,2.067-37.662,1.889-43.925S749.829,378.462,757.481,367.054Z" transform="translate(-200.252 -104.246)"/><path class="g" d="M780.736,533.479s33.771,18.424,37,44.647-45.17-25.391-45.17-25.391Z" transform="translate(-200.939 -110.938)"/><path class="g" d="M801.164,513.979s10.348,52.159,26.468,49.389-9-52.39-9-52.39Z" transform="translate(-202.089 -110.033)"/><path class="f" d="M858.075,750.706s-8.254,9.509-10.3,8.063-6.753,18.241-2.51,22.007,20.588,9.946,20.765,16.208,44.013,5.021,45.582-1.542-5.5-21.529-10.465-24.272-23.329-27.982-23.329-27.982S863.437,745.29,858.075,750.706Z" transform="translate(-203.794 -119.371)"/><path class="h" d="M770.954,560.731c-7.832-5.528-29.7-6.9-49.113-8.175-8.518-.546-16.564-1.082-22.746-1.95-5.957-.825-11.314-6.268-16.071-14.378-7.211-12.289-13.039-30.717-17.528-48.5,1.7-22.328,4.264-39.91,4.264-39.91s-5.057-15.085-6.675-25.424a13.606,13.606,0,0,1,4.307-3.879c20.592-8.839,40.252,78.148,42.749,91.8.043.225.075.439.107.621,1.211,7.028,14.292,13.039,26.014,15.417,7.221,1.468,13.939,1.564,17.035-.343,8.132-4.993,33.138,14.989,35.035,15.557S782.2,568.692,770.954,560.731Z" transform="translate(-196.537 -106.29)"/><path class="f" d="M667.155,412.935s-14.967,7.067-8.391,40.1,19.824,89.187,40.084,92,60.6,2.169,71.86,10.123,19.278-18.6,17.382-19.169-26.9-20.547-35.036-15.553-41.094-3.725-43.045-15.076S688.084,403.944,667.155,412.935Z" transform="translate(-196.296 -106.066)"/><path class="f" d="M779.946,396.457l16.449,38.168s1.656-.826,3.58,5.136,2.824,11.2,6.194,15.117,18.364,59.771,18.814,62.391-20.709,11.65-25.437,4.372S779.946,396.457,779.946,396.457Z" transform="translate(-201.236 -105.428)"/><path class="f" d="M721.639,333.407c1.222-.326,1.4-1.949,1.443-3.214.219-6.772,4.3-13.72,10.779-15.692a18.121,18.121,0,0,1,7.639-.42,28.932,28.932,0,0,1,10.345,3.451c1.688.949,3.344,2.092,5.259,2.382,1.265.191,6.741,1.784,8,2.008,2.769.493,5.342,2.97,8,2.048,2.542-.882,3.1-4.173,3.166-6.863.14-6.128-4.512-14.609-8.609-19.168-3.109-3.459-7.791-5.056-12.368-5.887a82.337,82.337,0,0,0-16.175-.984c-7.324.131-14.852.7-21.456,3.865s-12.152,9.476-12.469,16.8c-.066,1.525.091,3.055-.037,4.576-.313,3.709-2.282,7.06-3.206,10.666a19.517,19.517,0,0,0,2.725,15.6c2.451,3.607,6.3,6.87,6.162,11.228l5.315-5.506a4.364,4.364,0,0,0,1.3-5.332l-1.881-7.338a6.62,6.62,0,0,1-.163-4.084C717.421,326.554,719.6,333.951,721.639,333.407Z" transform="translate(-198.076 -101.188)"/><path class="d" d="M458.258,552.489c0,101.688-60.452,137.194-135.024,137.194S188.211,654.177,188.211,552.489,323.235,321.437,323.235,321.437,458.258,450.8,458.258,552.489Z" transform="translate(-177.441 -102.412)"/><path class="c" d="M144.5,580.892l1.383-85.1L203.436,390.5,146.1,482.438l.621-38.267L186.388,368l-39.5,66.047h0l1.118-68.823,42.473-60.643-42.3,49.821.7-126.2-4.39,167.063.36-6.891-43.182-66.1L144.16,401.6l-4.023,76.865-.12-2.041L90.235,406.869l49.631,76.765-.5,9.613-.09.144.041.789L129.105,689.192h13.639l1.636-100.728,49.509-76.577Z" transform="translate(-3.629 -9.177)"/></g><g transform="translate(0 -7559)"><g class="n" transform="matrix(1, 0, 0, 1, 0, 7559)"><text class="j" transform="translate(968 199)"><tspan x="19.55" y="90">Marketing de Conteúdo</tspan></text></g><g class="m" transform="matrix(1, 0, 0, 1, 0, 7559)"><text class="k" transform="translate(968 327)"><tspan x="78.211" y="41">O marketing de conteúdo é, na </tspan><tspan x="10.192" y="103">atualidade, a principal estratégia para </tspan><tspan x="62.776" y="165">engajar os usuários da internet e </tspan><tspan x="10.444" y="227">potencializar os futuros compradores. </tspan><tspan x="38.206" y="289">Para isso, é utilizado a produção de </tspan><tspan x="30.772" y="351">conteúdos interessantes e atrativos. </tspan><tspan x="33.46" y="413">Essas informações postadas devem </tspan><tspan x="18.823" y="475">ter certo valor para quem vai recebê-</tspan><tspan x="373.24" y="537">las.</tspan></text></g></g></g></svg>