<svg xmlns="http://www.w3.org/2000/svg" xmlns:xlink="http://www.w3.org/1999/xlink" width="1920" height="1080" viewBox="0 0 1920 1080"><defs><style>.a{clip-path:url(#ab);}.b{fill:#2d3436;}.c{fill:#237bed;}.d,.j,.k{fill:#fff;}.d{font-size:52px;font-family:BebasNeueBold, Bebas Neue;}.e{fill:#6c63ff;}.f{fill:#23cc6b;}.g{fill:#e52659;}.h{fill:#ff8d45;}.i{fill:#ffcc45;}.j{font-size:100px;font-family:BebasNeue-Regular, Bebas Neue;}.l{filter:url(#y);}.m{filter:url(#w);}.n{filter:url(#u);}.o{filter:url(#s);}.p{filter:url(#q);}.q{filter:url(#o);}.r{filter:url(#m);}.s{filter:url(#k);}.t{filter:url(#i);}.u{filter:url(#g);}.v{filter:url(#e);}.w{filter:url(#c);}.x{filter:url(#a);}</style><filter id="a" x="383" y="272" width="334" height="334" filterUnits="userSpaceOnUse"><feOffset dx="4" dy="4" input="SourceAlpha"/><feGaussianBlur stdDeviation="4" result="b"/><feFlood flood-opacity="0.396"/><feComposite operator="in" in2="b"/><feComposite in="SourceGraphic"/></filter><filter id="c" x="396" y="370" width="308" height="139" filterUnits="userSpaceOnUse"><feOffset dx="4" dy="4" input="SourceAlpha"/><feGaussianBlur stdDeviation="4" result="d"/><feFlood flood-opacity="0.396"/><feComposite operator="in" in2="d"/><feComposite in="SourceGraphic"/></filter><filter id="e" x="383" y="682" width="334" height="334" filterUnits="userSpaceOnUse"><feOffset dx="4" dy="4" input="SourceAlpha"/><feGaussianBlur stdDeviation="4" result="f"/><feFlood flood-opacity="0.396"/><feComposite operator="in" in2="f"/><feComposite in="SourceGraphic"/></filter><filter id="g" x="396" y="781" width="308" height="137" filterUnits="userSpaceOnUse"><feOffset dx="4" dy="4" input="SourceAlpha"/><feGaussianBlur stdDeviation="4" result="h"/><feFlood flood-opacity="0.396"/><feComposite operator="in" in2="h"/><feComposite in="SourceGraphic"/></filter><filter id="i" x="797" y="272" width="334" height="334" filterUnits="userSpaceOnUse"><feOffset dx="4" dy="4" input="SourceAlpha"/><feGaussianBlur stdDeviation="4" result="j"/><feFlood flood-opacity="0.396"/><feComposite operator="in" in2="j"/><feComposite in="SourceGraphic"/></filter><filter id="k" x="810" y="310" width="308" height="258" filterUnits="userSpaceOnUse"><feOffset dx="4" dy="4" input="SourceAlpha"/><feGaussianBlur stdDeviation="4" result="l"/><feFlood flood-opacity="0.396"/><feComposite operator="in" in2="l"/><feComposite in="SourceGraphic"/></filter><filter id="m" x="797" y="682" width="334" height="334" filterUnits="userSpaceOnUse"><feOffset dx="4" dy="4" input="SourceAlpha"/><feGaussianBlur stdDeviation="4" result="n"/><feFlood flood-opacity="0.396"/><feComposite operator="in" in2="n"/><feComposite in="SourceGraphic"/></filter><filter id="o" x="810" y="714" width="308" height="266" filterUnits="userSpaceOnUse"><feOffset dx="4" dy="4" input="SourceAlpha"/><feGaussianBlur stdDeviation="4" result="p"/><feFlood flood-opacity="0.396"/><feComposite operator="in" in2="p"/><feComposite in="SourceGraphic"/></filter><filter id="q" x="1211" y="272" width="334" height="334" filterUnits="userSpaceOnUse"><feOffset dx="4" dy="4" input="SourceAlpha"/><feGaussianBlur stdDeviation="4" result="r"/><feFlood flood-opacity="0.396"/><feComposite operator="in" in2="r"/><feComposite in="SourceGraphic"/></filter><filter id="s" x="1224" y="341" width="308" height="196" filterUnits="userSpaceOnUse"><feOffset dx="4" dy="4" input="SourceAlpha"/><feGaussianBlur stdDeviation="4" result="t"/><feFlood flood-opacity="0.396"/><feComposite operator="in" in2="t"/><feComposite in="SourceGraphic"/></filter><filter id="u" x="1211" y="682" width="334" height="334" filterUnits="userSpaceOnUse"><feOffset dx="4" dy="4" input="SourceAlpha"/><feGaussianBlur stdDeviation="4" result="v"/><feFlood flood-opacity="0.396"/><feComposite operator="in" in2="v"/><feComposite in="SourceGraphic"/></filter><filter id="w" x="1224" y="746" width="308" height="201" filterUnits="userSpaceOnUse"><feOffset dx="4" dy="4" input="SourceAlpha"/><feGaussianBlur stdDeviation="4" result="x"/><feFlood flood-opacity="0.396"/><feComposite operator="in" in2="x"/><feComposite in="SourceGraphic"/></filter><filter id="y" x="408" y="72" width="1112" height="144" filterUnits="userSpaceOnUse"><feOffset dx="4" dy="4" input="SourceAlpha"/><feGaussianBlur stdDeviation="4" result="z"/><feFlood flood-color="#fff" flood-opacity="0.396"/><feComposite operator="in" in2="z"/><feComposite in="SourceGraphic"/></filter><clipPath id="ab"><rect width="1920" height="1080"/></clipPath></defs><g id="aa" class="a"><rect class="k" width="1920" height="1080"/><rect class="b" width="1920" height="1080"/><g transform="translate(251 -15120)"><g transform="translate(0 -4195)"><g class="x" transform="matrix(1, 0, 0, 1, -251, 19315)"><rect class="c" width="310" height="310" rx="20" transform="translate(391 280)"/></g><g class="w" transform="matrix(1, 0, 0, 1, -251, 19315)"><text class="d" transform="translate(404 378)"><tspan x="45.488" y="39">Alcançar o </tspan><tspan x="23.44" y="99">Público certo</tspan></text></g></g><g transform="translate(0 -3785)"><g class="v" transform="matrix(1, 0, 0, 1, -251, 18905)"><rect class="e" width="310" height="310" rx="20" transform="translate(391 690)"/></g><g class="u" transform="matrix(1, 0, 0, 1, -251, 18905)"><text class="d" transform="translate(404 789)"><tspan x="46.866" y="39">Encurtar o </tspan><tspan x="7.632" y="99">ciclo de vendas</tspan></text></g></g><g transform="translate(414 -4195)"><g class="t" transform="matrix(1, 0, 0, 1, -665, 19315)"><rect class="f" width="310" height="310" rx="20" transform="translate(805 280)"/></g><g class="s" transform="matrix(1, 0, 0, 1, -665, 19315)"><text class="d" transform="translate(818 318)"><tspan x="6.852" y="39">Estabelecer um </tspan><tspan x="1.366" y="99">relacionamento </tspan><tspan x="16.81" y="159">mais profundo </tspan><tspan x="21.126" y="219">com o cliente.</tspan></text></g></g><g transform="translate(414 -3785)"><g class="r" transform="matrix(1, 0, 0, 1, -665, 18905)"><rect class="g" width="310" height="310" rx="20" transform="translate(805 690)"/></g><g class="q" transform="matrix(1, 0, 0, 1, -665, 18905)"><text class="d" transform="translate(818 727)"><tspan x="15.51" y="39">Diminuição dos </tspan><tspan x="69.018" y="99">custos E</tspan><tspan x="41.848" y="159">Aumento do </tspan><tspan x="34.672" y="219">ticket médio</tspan></text></g></g><g transform="translate(828 -4195)"><g class="p" transform="matrix(1, 0, 0, 1, -1079, 19315)"><rect class="h" width="310" height="310" rx="20" transform="translate(1219 280)"/></g><g class="o" transform="matrix(1, 0, 0, 1, -1079, 19315)"><text class="d" transform="translate(1232 349)"><tspan x="42.706" y="39">Aumentar o </tspan><tspan x="67.068" y="99">poder de </tspan><tspan x="50.948" y="159">persuasão </tspan></text></g></g><g transform="translate(828 -3785)"><g class="n" transform="matrix(1, 0, 0, 1, -1079, 18905)"><rect class="i" width="310" height="310" rx="20" transform="translate(1219 690)"/></g><g class="m" transform="matrix(1, 0, 0, 1, -1079, 18905)"><text class="d" transform="translate(1232 759)"><tspan x="11.09" y="39">Mensuração de </tspan><tspan x="17.252" y="99">resultados em </tspan><tspan x="45.566" y="159">tempo real</tspan></text></g></g></g><g class="l" transform="matrix(1, 0, 0, 1, 0, 0)"><text class="j" transform="translate(960 170)"><tspan x="-543.85" y="0">benefícios do inbound marketing</tspan></text></g></g></svg>