<svg xmlns="http://www.w3.org/2000/svg" xmlns:xlink="http://www.w3.org/1999/xlink" width="1920" height="1080" viewBox="0 0 1920 1080"><defs><style>.a{clip-path:url(#y);}.b,.c,.e,.q{fill:#07428e;}.b,.o,.p{opacity:0.2;}.c,.j{opacity:0.5;}.d{fill:url(#a);}.f{fill:url(#c);}.g{fill:url(#m);}.h,.p{fill:#fff;}.i{fill:url(#s);}.j,.l{fill:#263238;}.k{fill:url(#u);}.m{fill:#f8c198;}.n{fill:#ff9800;}.q{font-size:42px;font-family:Montserrat-Regular, Montserrat;}.r{font-family:Montserrat-Bold, Montserrat;font-weight:700;}.s{filter:url(#v);}</style><linearGradient id="a" x1="0.5" y1="1" x2="0.5" gradientUnits="objectBoundingBox"><stop offset="0" stop-color="gray" stop-opacity="0.251"/><stop offset="0.54" stop-color="gray" stop-opacity="0.122"/><stop offset="1" stop-color="gray" stop-opacity="0.102"/></linearGradient><linearGradient id="c" x1="0.5" y1="1" x2="0.5" gradientUnits="objectBoundingBox"><stop offset="0" stop-opacity="0.122"/><stop offset="0.55" stop-opacity="0.09"/><stop offset="1" stop-opacity="0.02"/></linearGradient><linearGradient id="m" x1="0" y1="0.5" x2="1" y2="0.5" xlink:href="#c"/><linearGradient id="s" x1="0" y1="0.5" x2="1" y2="0.5" xlink:href="#a"/><linearGradient id="u" xlink:href="#a"/><filter id="v" x="960" y="280" width="836" height="528" filterUnits="userSpaceOnUse"><feOffset dx="4" dy="4" input="SourceAlpha"/><feGaussianBlur stdDeviation="4" result="w"/><feFlood flood-opacity="0.396"/><feComposite operator="in" in2="w"/><feComposite in="SourceGraphic"/></filter><clipPath id="y"><rect width="1920" height="1080"/></clipPath></defs><g id="x" class="a"><rect class="h" width="1920" height="1080"/><g transform="translate(140 198.162)"><rect class="b" width="683" height="684" transform="translate(65 -0.161)"/><rect class="c" width="477.097" height="557.081" transform="translate(167.452 63.847)"/><rect class="d" width="255" height="492" transform="translate(557 97.839)"/><rect class="d" width="255" height="491" transform="translate(0 99.839)"/><rect class="e" width="239" height="473" transform="translate(565 105.839)"/><rect class="e" width="239" height="473" transform="translate(247 578.839) rotate(180)"/><rect class="f" width="160" height="29" transform="translate(48 148.839)"/><rect class="f" width="160" height="29" transform="translate(605 192.839)"/><rect class="f" width="160" height="29" transform="translate(604 237.839)"/><rect class="f" width="160" height="29" transform="translate(604 282.839)"/><rect class="f" width="160" height="29" transform="translate(604 327.839)"/><rect class="f" width="160" height="29" transform="translate(604 371.839)"/><rect class="f" width="160" height="29" transform="translate(604 416.839)"/><rect class="f" width="160" height="29" transform="translate(604 461.839)"/><rect class="f" width="160" height="29" transform="translate(604 506.839)"/><rect class="f" width="160" height="29" transform="translate(604 148.839)"/><rect class="g" width="160" height="29" transform="translate(48 194.839)"/><rect class="g" width="160" height="29" transform="translate(48 238.839)"/><rect class="g" width="160" height="29" transform="translate(48 282.839)"/><rect class="g" width="160" height="29" transform="translate(48 327.839)"/><rect class="g" width="160" height="29" transform="translate(48 371.839)"/><rect class="h" width="154" height="22" transform="translate(51 152.839)"/><rect class="h" width="153.419" height="22.452" transform="translate(50.984 196.452)"/><rect class="h" width="153.419" height="22.452" transform="translate(50.984 241.355)"/><rect class="h" width="153.419" height="22.452" transform="translate(50.984 286.258)"/><rect class="h" width="153.419" height="22.452" transform="translate(50.984 331.161)"/><rect class="h" width="153.419" height="22.452" transform="translate(50.984 376.065)"/><rect class="g" width="160" height="29" transform="translate(48 416.839)"/><rect class="h" width="153.419" height="22.452" transform="translate(50.984 420.968)"/><rect class="h" width="153.419" height="22.452" transform="translate(50.984 420.968)"/><rect class="h" width="153.419" height="22.452" transform="translate(50.984 465.871)"/><rect class="h" width="153.419" height="22.452" transform="translate(50.984 510.774)"/><rect class="h" width="153" height="22" transform="translate(608 151.839)"/><rect class="h" width="153" height="22" transform="translate(608 196.839)"/><rect class="h" width="153" height="22" transform="translate(608 241.839)"/><rect class="h" width="153" height="23" transform="translate(608 285.839)"/><rect class="h" width="153" height="23" transform="translate(608 330.839)"/><rect class="h" width="153" height="23" transform="translate(608 375.839)"/><rect class="h" width="153" height="23" transform="translate(608 420.839)"/><rect class="h" width="153" height="22" transform="translate(608 465.839)"/><rect class="h" width="153" height="22" transform="translate(608 510.839)"/><rect class="i" width="565" height="35" transform="translate(123 603.839)"/><rect class="e" width="556" height="28" transform="translate(128 606.839)"/><rect class="d" width="564" height="36" transform="translate(125 46.839)"/><rect class="e" width="556" height="28" transform="translate(128 49.839)"/><rect class="j" width="274" height="473" transform="translate(270 105.839)"/><path class="k" d="M794.056,416.8c6.548,8.775-3.255,19.14-3.255,19.14l1.646.571c-2.423,2.685-11.993,14.8-48.888,69.6-47.242,70.161-110.9,87.664-110.9,87.664h0a78.579,78.579,0,0,0-25.941-13.387v-6.623a77.645,77.645,0,0,0,51.732-50.03,79.592,79.592,0,0,0,8.55-35.96c0-44.9-37.2-81.331-83.09-81.331s-83.09,36.418-83.09,81.331a79.59,79.59,0,0,0,8.55,35.96,77.645,77.645,0,0,0,51.732,50.03v6.623a78.579,78.579,0,0,0-25.941,13.387h0s-63.688-17.522-110.93-87.683c-36.9-54.8-46.466-66.925-48.888-69.6l1.646-.571s-9.776-10.365-3.255-19.14-43.173-19.14-37.475,0,13.031,28.71,13.031,28.71S453.316,609.56,507.62,636.67a75.241,75.241,0,0,0-1.927,16.951v31.9H662.088v-31.9a75.239,75.239,0,0,0-1.927-16.951C714.419,609.541,818.491,445.5,818.491,445.5s7.334-9.57,13.031-28.71S787.536,408.029,794.056,416.8Z" transform="translate(-176.955 -105.241)"/><circle class="l" cx="79.572" cy="79.572" r="79.572" transform="translate(327.363 307.222)"/><circle class="m" cx="74.895" cy="74.895" r="74.895" transform="translate(332.041 324.388)"/><circle class="l" cx="9.364" cy="9.364" r="9.364" transform="translate(367.926 373.529)"/><circle class="l" cx="9.364" cy="9.364" r="9.364" transform="translate(428.779 373.529)"/><path class="h" d="M621.337,547.623c0,5.613-9.776,14.827-21.844,14.827s-21.844-9.214-21.844-14.827,9.776-5.463,21.844-5.463S621.337,542.01,621.337,547.623Z" transform="translate(-192.558 -114.026)"/><circle class="h" cx="3.125" cy="3.125" r="3.125" transform="translate(376.504 379.769)"/><circle class="h" cx="3.125" cy="3.125" r="3.125" transform="translate(438.134 379.769)"/><path class="l" d="M605.667,463.839c-4.565,0-8.663-3.966-9.149-8.5a11.226,11.226,0,0,1,6.548-10.992,3.2,3.2,0,0,1,1.375-.356c1.572,0,2.348,1.871,2.853,3.358,1.572,4.6,4.359,9.093,8.737,11.226s10.5,1.038,12.807-3.246c-6.193-2.76-8.84-11.422-5.239-17.166,1.394-2.217,3.564-4.1,4-6.679.8-4.677-4.322-8.083-8.859-9.486-13.1-4.051-58.748-4.5-61.265,15.043C554.843,457.656,591.289,466.571,605.667,463.839Z" transform="translate(-191.248 -106.129)"/><ellipse class="m" cx="4.677" cy="13.265" rx="4.677" ry="13.265" transform="matrix(0.93, -0.367, 0.367, 0.93, 325.932, 389.46)"/><ellipse class="m" cx="13.265" cy="4.677" rx="13.265" ry="4.677" transform="matrix(0.367, -0.93, 0.93, 0.367, 469.484, 410.654)"/><path class="n" d="M650.232,598.177S711.2,581.057,756.447,512.4s47.588-68.842,47.588-68.842l24.182,9.551s-112.333,181-160.7,190.362S650.232,598.177,650.232,598.177Z" transform="translate(-196.607 -107.665)"/><path class="m" d="M812.83,441.751s9.355-10.141,3.125-18.71,41.348-18.71,35.885,0-12.479,28.065-12.479,28.065Z" transform="translate(-207.731 -105.66)"/><path class="n" d="M538.815,598.177S477.85,581.057,432.6,512.4s-47.588-68.842-47.588-68.842l-24.182,9.551s112.342,181,160.716,190.362S538.815,598.177,538.815,598.177Z" transform="translate(-178.57 -107.665)"/><path class="m" d="M386.45,441.751s-9.355-10.141-3.125-18.71-41.348-18.71-35.885,0,12.479,28.065,12.479,28.065Z" transform="translate(-177.678 -105.66)"/><g class="o" transform="translate(367.608 319.028)"><path class="h" d="M627.9,427.158c-.449,2.582-2.619,4.453-4,6.679-3.153,5.033-1.515,12.311,3.106,15.9a11.964,11.964,0,0,1,.8-10.421c1.394-2.217,3.564-4.1,4-6.679.505-2.928-1.319-5.36-3.864-7.11a5.61,5.61,0,0,1-.037,1.628Z" transform="translate(-563.045 -425.53)"/><path class="h" d="M606.658,446.132c-.3-.7-.58-1.413-.823-2.124-.505-1.487-1.282-3.312-2.853-3.358a3.2,3.2,0,0,0-1.375.355A11.226,11.226,0,0,0,595.058,452a9.851,9.851,0,0,0,4.182,6.876,8.784,8.784,0,0,1-.281-1.413,11.226,11.226,0,0,1,6.548-10.992A3.62,3.62,0,0,1,606.658,446.132Z" transform="translate(-561.287 -426.505)"/><path class="h" d="M597.736,461.447c-11.375.477-29.73-3.864-38.776-13.1,6.754,14.369,34.66,20.384,46.774,18.074A9.43,9.43,0,0,1,597.736,461.447Z" transform="translate(-558.96 -427.002)"/><path class="h" d="M627.619,454.078c-2.732,3.209-8.026,3.882-11.927,1.983a13.6,13.6,0,0,1-3.461-2.442,16.689,16.689,0,0,0,7.362,7.9c4.378,2.124,10.5,1.038,12.807-3.246a11.114,11.114,0,0,1-4.78-4.191Z" transform="translate(-562.397 -427.342)"/></g><path class="p" d="M826.178,453.709s-112.342,181-160.763,190.362a56.445,56.445,0,0,1-8.485,1.038,49.626,49.626,0,0,0,11.609-1.038c48.374-9.355,160.716-190.362,160.716-190.362l-2.507-.889A10.456,10.456,0,0,1,826.178,453.709Z" transform="translate(-197.673 -108.263)"/><path class="p" d="M363.938,453.709S476.28,634.706,524.7,644.07a56.443,56.443,0,0,0,8.485,1.038,49.626,49.626,0,0,1-11.609-1.038C473.2,634.715,360.86,453.709,360.86,453.709l2.507-.889A10.472,10.472,0,0,0,363.938,453.709Z" transform="translate(-178.572 -108.263)"/><path class="n" d="M429.835,506.88h0a74.9,74.9,0,0,1,74.895,74.895v31.208H354.94V581.775A74.9,74.9,0,0,1,429.835,506.88Z" transform="translate(-22.899 -32.702)"/><path class="p" d="M601.267,591.8h0a75.766,75.766,0,0,0-8.168.441c.946,0,1.8-.057,2.7-.057h0A74.9,74.9,0,0,1,670.7,667.078v30.815h5.463v-31.2A74.9,74.9,0,0,0,601.267,591.8Z" transform="translate(-193.555 -117.229)"/><path class="p" d="M595,591.8h0a75.766,75.766,0,0,1,8.168.441c-.946,0-1.8-.057-2.7-.057h0a74.9,74.9,0,0,0-74.895,74.895v30.815H520.11v-31.2A74.9,74.9,0,0,1,595,591.8Z" transform="translate(-188.846 -117.229)"/><rect class="m" width="43.687" height="52.658" rx="21.844" transform="translate(385.092 453.504)"/></g><g class="s" transform="matrix(1, 0, 0, 1, 0, 0)"><text class="q" transform="translate(968 288)"><tspan x="92.323" y="41">Que bom vê-lo(a) novamente! </tspan><tspan x="58.639" y="103">Estamos começando o </tspan><tspan class="r" y="103">Módulo 2 </tspan><tspan x="13.216" y="165">vamos estudar como podem atuar as </tspan><tspan x="31.948" y="227">estratégias do marketing dentro do </tspan><tspan x="78.757" y="289">cenário virtual. Para isso vamos </tspan><tspan x="23.233" y="351">conhecer os conceitos do marketing </tspan><tspan x="49.483" y="413">digital e como o negócio pode ser </tspan><tspan x="51.814" y="475">pensado dentro desses conceitos.</tspan></text></g></g></svg>