<svg xmlns="http://www.w3.org/2000/svg" width="777.613" height="719.664" viewBox="0 0 777.613 719.664"><defs><style>.a{fill:#237bed;}.b{fill:#3f3d56;}.c{fill:#2f2e41;}.d{fill:#a0616a;}.e{fill:#d0cde1;}</style></defs><path class="a" d="M860.507,59.97s22.917-17.417,71.5,6.417,83.417,3.667,83.417,3.667l-5.5,79.75s-49.5,19.25-95.333-8.25-60.5,0-60.5,0Z" transform="translate(-245.259 -37.054)"/><path class="a" d="M829.145,439.6A268.739,268.739,0,0,1,660.482,688.967,263.027,263.027,0,0,1,632.62,698.4a270.308,270.308,0,0,1-144.045.018q-9.666-2.681-19.03-6.059A265.279,265.279,0,0,1,428.488,673.5,268.451,268.451,0,0,1,291.977,439.6c-.083-143.514,112.736-261.707,256.1-268.3q6.215-.289,12.485-.284,6.889,0,13.7.339C717.1,178.633,829.169,296.578,829.145,439.6Z" transform="translate(-169.897 -52.764)"/><path class="b" d="M973.489,155.258c-17.642,0-38.675-3.537-58.921-15.685-18.526-11.115-33.882-14.787-45.642-10.915A23.992,23.992,0,0,0,854.7,140.733l-2.382,5.728,9.533-94.325.247-.234c.81-.77,20.425-18.558,71.753,6.623,50.272,24.661,86.931,4.115,87.294,3.9l1.491-.861-.117,1.718-5.853,84.862-.542.211C1015.816,148.479,997.9,155.257,973.489,155.258Zm-94.805-29.924c10.442,0,22.777,4.236,36.828,12.666,44.894,26.937,93.736,10.866,99.4,8.848l5.66-82.071c-7.442,3.588-42.071,17.7-87.535-4.606C885.867,37.029,865.978,51.1,863.6,53.025l-8.424,83.344a26.394,26.394,0,0,1,13.174-9.454,32.848,32.848,0,0,1,10.33-1.581Z" transform="translate(-245.021 -35.882)"/><path class="b" d="M551.526,701.73a286.439,286.439,0,0,1-76.654-10.4c-6.91-1.917-13.728-4.088-20.266-6.453A286.157,286.157,0,0,1,425.3,159.032a283.2,283.2,0,0,1,112.937-29c8.854-.413,18.232-.41,27.884.058a286.062,286.062,0,0,1,91.757,551.2,281.706,281.706,0,0,1-29.617,10.025,286.574,286.574,0,0,1-76.731,10.415Zm0-570.167c-4.475,0-8.92.1-13.209.3A281.373,281.373,0,0,0,426.1,160.677a284.315,284.315,0,0,0,29.124,522.48c6.495,2.351,13.268,4.507,20.133,6.41a285.99,285.99,0,0,0,152.4-.019,279.668,279.668,0,0,0,29.424-9.96,284.214,284.214,0,0,0-91.165-547.667c-4.915-.238-9.795-.359-14.5-.359Z" transform="translate(-166.362 -47.229)"/><rect class="b" width="419.418" height="1.833" transform="translate(0 716.522)"/><path class="b" d="M227.679,852.878l-.984-.369c-.216-.081-21.733-8.325-31.812-27.018s-5.144-41.2-5.093-41.425l.232-1.025.983.369c.216.081,21.732,8.325,31.812,27.018s5.144,41.2,5.093,41.425ZM196.5,824.622c8.522,15.8,25.525,23.906,29.833,25.755.819-4.617,3.388-23.289-5.126-39.078s-25.523-23.9-29.833-25.755c-.819,4.62-3.387,23.29,5.126,39.078Z" transform="translate(-156.029 -134.818)"/><path class="a" d="M198.49,823.311c18.114,10.9,25.09,32.544,25.09,32.544s-22.392,3.977-40.506-6.921-25.09-32.544-25.09-32.544S180.376,812.413,198.49,823.311Z" transform="translate(-151.933 -139.194)"/><circle class="c" cx="85.807" cy="85.807" r="85.807" transform="translate(228.056 48.048)"/><circle class="d" cx="60.793" cy="60.793" r="60.793" transform="translate(270.935 96.955)"/><path class="d" d="M470.875,232.229s-9.006,72.052-41.655,86.687,90.064,6.755,90.064,6.755,0-65.3,4.5-67.548S470.875,232.229,470.875,232.229Z" transform="translate(-187.556 -60.971)"/><path class="d" d="M455.544,782.176l-4.5,23.642S388,842.969,418.393,853.1s67.548-43.906,67.548-43.906l-6.755-27.019Z" transform="translate(-185.735 -134.702)"/><path class="d" d="M513.283,566.474l49.535,52.913L699.041,524.82s-31.523-24.768-41.655-24.768S513.283,566.474,513.283,566.474Z" transform="translate(-199.567 -96.878)"/><path class="d" d="M822.709,240.923s14.635-102.448,40.529-94.568-14.635,109.2-14.635,109.2Z" transform="translate(-241.052 -49.4)"/><path class="e" d="M578.8,317.494s-49.125-7.881-67.343,0-73.25,14.151-80.071,5.387-67.615,20.507-67.615,32.891S495.49,555.039,495.49,555.039s136.222-38.277,154.235-78.806c0,0-15.761-11.258-15.761-20.265s-7.881-18.013-7.881-18.013,9.007-22.516-6.755-42.781S578.8,317.494,578.8,317.494Z" transform="translate(-179.522 -71.933)"/><path class="e" d="M595.19,312l14.635-3.377s36.026,9.006,60.793,39.4,67.548,40.529,67.548,40.529l51.787-140.726,42.781,14.635s-33.774,179-72.052,181.255-132.845-39.4-132.845-39.4Z" transform="translate(-210.548 -63.063)"/><path class="e" d="M380.912,349.239s-23.642,1.126-23.642,21.39,3.377,90.064,23.642,120.461,38.277,99.071,39.4,100.2,22.516,142.977,22.516,142.977l36.026-3.377L472.1,554.136l-34.9-90.064Z" transform="translate(-178.651 -76.659)"/><path class="c" d="M798.772,653.856A269.158,269.158,0,0,1,689.4,734.844l-5.693-12.393-22.119,21.807a270.308,270.308,0,0,1-144.045.018l-9.469-6.059,50.664-58.548s1.128-29.269,0-33.77-15.9-45.366-15.9-45.366C594.181,597.28,667.6,532.15,684.6,516.448c2.337-2.163,3.612-3.392,3.612-3.392,94.563,13.5,108.075,123.833,108.075,123.833Z" transform="translate(-198.87 -98.622)"/><ellipse class="d" cx="5.5" cy="11.458" rx="5.5" ry="11.458" transform="translate(265.081 148.5)"/><circle class="c" cx="35.75" cy="35.75" r="35.75" transform="translate(199.997 16.5)"/><path class="c" d="M378.555,70.206A35.748,35.748,0,0,1,410.175,34.7a35.75,35.75,0,1,0,.005,71.011,35.75,35.75,0,0,1-31.625-35.506Z" transform="translate(-180.391 -34.456)"/><rect class="c" width="12.833" height="134.75" transform="translate(606.081 21.083)"/><path class="c" d="M449.708,151.653s16.5,34.833,36.667,35.75,95.333-13.75,95.333-13.75l-24.75-51.333-66,8.25Z" transform="translate(-191.044 -46.236)"/></svg>