<svg xmlns="http://www.w3.org/2000/svg" width="133.692" height="85.117" viewBox="0 0 133.692 85.117"><defs><style>.a{fill:#009ef2;}.b{fill:#322153;}</style></defs><g transform="translate(20.562 29.965)"><circle class="a" cx="9.103" cy="9.103" r="9.103" transform="translate(0 36.947)"/><ellipse class="a" cx="9.536" cy="9.103" rx="9.536" ry="9.103" transform="translate(73.687 36.947)"/><path class="a" d="M337.22,188H328v18.44h18.44Z" transform="translate(-254.056 -188)"/></g><g transform="translate(0 0)"><path class="b" d="M124.01,112.582l-6.454-12.908a11.8,11.8,0,0,0-10.373-6.454H87.591V90.915A6.792,6.792,0,0,0,80.676,84H6.915A6.792,6.792,0,0,0,0,90.915v59.931a2.178,2.178,0,0,0,2.305,2.305H18.671a11.528,11.528,0,0,0,22.589,0H92.432a11.528,11.528,0,0,0,22.589,0h16.366a2.178,2.178,0,0,0,2.305-2.305v-27.66a2.093,2.093,0,0,0-.691-1.614Zm-10.6-10.834,6.685,13.369c0,.231.23.461.461.692l8.529,8.529V130.1h-6.915a2.305,2.305,0,0,0,0,4.61h6.915v4.61h-6.915c-.461,0-.692,0-.922.23a20.929,20.929,0,0,0-17.518-9.451,2.305,2.305,0,0,0,0,4.61,16.128,16.128,0,0,1,15.9,13.83h-4.61a11.594,11.594,0,0,0-11.295-9.22H87.591V97.83h19.593A6.563,6.563,0,0,1,113.407,101.749ZM6.915,88.61H80.676a2.178,2.178,0,0,1,2.305,2.305V102.44H76.066a2.305,2.305,0,0,0,0,4.61h6.915v4.61H66.846a2.305,2.305,0,1,0,0,4.61H82.981v4.61H76.066a2.305,2.305,0,0,0,0,4.61h6.915v13.83H48.406a2.305,2.305,0,1,0,0,4.61h46.1a11.881,11.881,0,0,0-2.075,4.61H41.26a11.528,11.528,0,0,0-22.589,0h-4.61a16.128,16.128,0,0,1,15.9-13.83,2.305,2.305,0,1,0,0-4.61,20.929,20.929,0,0,0-17.518,9.451c-.231-.23-.461-.23-.922-.23H4.61V90.915A2.178,2.178,0,0,1,6.915,88.61ZM4.61,143.931h5.763a26.961,26.961,0,0,0-1.153,4.61H4.61Zm25.355,13.83a6.915,6.915,0,1,1,6.915-6.915A6.792,6.792,0,0,1,29.965,157.761Zm73.761,0a6.915,6.915,0,1,1,6.915-6.915A6.792,6.792,0,0,1,103.726,157.761Zm25.355-9.22h-4.841a15.049,15.049,0,0,0-1.153-4.61h5.993Z" transform="translate(0 -84)"/><path class="b" d="M66.305,171.05a2.093,2.093,0,0,0,1.614-.692l18.44-18.44a2.282,2.282,0,0,0-3.227-3.227l-18.44,18.44a2.228,2.228,0,0,0,0,3.227A2.093,2.093,0,0,0,66.305,171.05Z" transform="translate(-45.56 -129.56)"/><path class="b" d="M105.912,180.691l-9.22,9.22a2.228,2.228,0,0,0,0,3.227,2.228,2.228,0,0,0,3.227,0l9.22-9.22a2.282,2.282,0,0,0-3.227-3.227Z" transform="translate(-68.34 -152.34)"/><path class="b" d="M66.305,161.83a2.093,2.093,0,0,0,1.614-.692l9.22-9.22a2.282,2.282,0,0,0-3.227-3.227l-9.22,9.22a2.228,2.228,0,0,0,0,3.227A2.092,2.092,0,0,0,66.305,161.83Z" transform="translate(-45.56 -129.56)"/><path class="b" d="M322.3,171.05h18.44a2.751,2.751,0,0,0,2.075-1.152,2.094,2.094,0,0,0,0-2.305l-9.22-18.44A2.421,2.421,0,0,0,331.525,148H322.3a2.178,2.178,0,0,0-2.3,2.305v18.44A2.178,2.178,0,0,0,322.3,171.05Zm2.305-18.44h5.532l6.915,13.83H324.61Z" transform="translate(-227.799 -129.56)"/></g></svg>