<svg xmlns="http://www.w3.org/2000/svg" width="89.5" height="94.295" viewBox="0 0 89.5 94.295"><defs><style>.a{fill:#009ef2;}.b{fill:#322153;}</style></defs><path class="a" d="M66.668,124.386a6.368,6.368,0,0,0,9.11,0l28.768-28.768a6.368,6.368,0,0,0,0-9.11L60.275,41.758A6.963,6.963,0,0,0,55.64,40H26.393A6.412,6.412,0,0,0,20,46.393V75.64a5.8,5.8,0,0,0,1.918,4.475ZM35.982,46.393a9.589,9.589,0,1,1-9.589,9.589A9.617,9.617,0,0,1,35.982,46.393Z" transform="translate(-18.402 -32.009)"/><g transform="translate(0)"><path class="b" d="M18.553,46.988c-.16,1.918-.16,3.836-.16,5.754,0,1.438.16,33.563,7.991,33.563,5.274,0,7.032-13.9,7.671-23.813L59.147,87.263a8.139,8.139,0,0,0,5.594,2.4,7.5,7.5,0,0,0,5.594-2.4L99.1,58.495a8.139,8.139,0,0,0,2.4-5.594,7.5,7.5,0,0,0-2.4-5.594L54.832,2.557A6.892,6.892,0,0,0,49.238,0H19.991A7.913,7.913,0,0,0,12,7.991V37.238a7.5,7.5,0,0,0,2.4,5.594Zm7.831,36.12c-1.758-.639-4.795-11.507-4.795-30.366V50.184l9.429,9.27C30.379,74.157,27.822,82.468,26.384,83.107ZM15.2,7.991A4.709,4.709,0,0,1,19.991,3.2H49.238a4.353,4.353,0,0,1,3.356,1.438l44.271,44.75A4.6,4.6,0,0,1,98.3,52.741,4.353,4.353,0,0,1,96.865,56.1L68.1,84.865a4.931,4.931,0,0,1-6.713,0l-27.17-26.69c.16-3.037.16-5.114.16-5.434,0-.959,0-14.7-2.237-24.293a11.135,11.135,0,1,0-10.069-2.557.157.157,0,0,1,.16.16,11.005,11.005,0,0,0,6.713,2.717,115.178,115.178,0,0,1,2.237,23.973v2.4L16.635,40.754A4.958,4.958,0,0,1,15.2,37.238V7.991Zm6.393,9.589a7.991,7.991,0,1,1,15.982,0,8.063,8.063,0,0,1-6.233,7.831c-1.119-3.676-2.717-6.233-4.954-6.233-1.6,0-2.717,1.279-3.516,2.717A8.038,8.038,0,0,1,21.589,17.58Zm4.795,4.795c.479.16,1.119,1.279,1.758,3.037a10.708,10.708,0,0,1-2.877-1.119A6.92,6.92,0,0,1,26.384,22.375Z" transform="translate(-12)"/><path class="b" d="M281.265,320.479l-12.786,12.786a1.545,1.545,0,0,0,0,2.237,1.545,1.545,0,0,0,2.238,0L283.5,322.717a1.582,1.582,0,1,0-2.238-2.238Z" transform="translate(-216.857 -256.071)"/><path class="b" d="M364.479,265.11a1.545,1.545,0,0,0,2.238,0l6.393-6.393a1.582,1.582,0,1,0-2.237-2.238l-6.393,6.393A1.545,1.545,0,0,0,364.479,265.11Z" transform="translate(-293.678 -204.857)"/><path class="b" d="M245.11,320.479a1.545,1.545,0,0,0-2.237,0l-6.393,6.393a1.545,1.545,0,0,0,0,2.237,1.545,1.545,0,0,0,2.238,0l6.393-6.393A1.545,1.545,0,0,0,245.11,320.479Z" transform="translate(-191.25 -256.071)"/><path class="b" d="M300.479,239.5a1.545,1.545,0,0,0,2.238,0L315.5,226.717a1.582,1.582,0,0,0-2.237-2.237l-12.786,12.786A1.545,1.545,0,0,0,300.479,239.5Z" transform="translate(-242.464 -179.25)"/><path class="b" d="M205.6,220.768a1.451,1.451,0,0,0,1.119-.479l25.571-25.571a1.582,1.582,0,0,0-2.237-2.238l-25.571,25.571a1.545,1.545,0,0,0,0,2.237A1.451,1.451,0,0,0,205.6,220.768Z" transform="translate(-165.643 -153.643)"/><path class="b" d="M205.6,166.375a1.51,1.51,0,0,0,1.6-1.6V145.6a1.6,1.6,0,0,0-3.2,0v19.179A1.51,1.51,0,0,0,205.6,166.375Z" transform="translate(-165.643 -115.232)"/><path class="b" d="M229.6,180.786a1.51,1.51,0,0,0,1.6-1.6V169.6a1.6,1.6,0,1,0-3.2,0v9.589A1.51,1.51,0,0,0,229.6,180.786Z" transform="translate(-184.848 -134.437)"/><path class="b" d="M181.6,180.786a1.51,1.51,0,0,0,1.6-1.6V169.6a1.6,1.6,0,1,0-3.2,0v9.589A1.51,1.51,0,0,0,181.6,180.786Z" transform="translate(-146.437 -134.437)"/></g></svg>