<svg xmlns="http://www.w3.org/2000/svg" width="143.942" height="156.773" viewBox="0 0 143.942 156.773"><defs><style>.a{fill:#009ef2;}.b{fill:#322153;}</style></defs><g transform="translate(0 46.271) rotate(-30)"><path class="a" d="M8.814,26.441H0V61.695H44.068V26.441H35.254V0H8.814Z" transform="translate(37.458 54.885)"/><g transform="translate(0 0)"><path class="b" d="M92.542,112.173a6.492,6.492,0,0,0-6.61-6.61h-2.2V72.512a2.082,2.082,0,0,0-2.2-2.2h-6.61V46.071a2.082,2.082,0,0,0-2.2-2.2H46.271a2.082,2.082,0,0,0-2.2,2.2V70.309H39.661V24.038a6.492,6.492,0,0,0-6.61-6.61h-2.2V15.885A15.628,15.628,0,0,0,15.864.021,14.61,14.61,0,0,0,4.627,4.427,14.8,14.8,0,0,0,0,15.224a2.082,2.082,0,0,0,2.2,2.2,2.082,2.082,0,0,0,2.2-2.2A10.818,10.818,0,0,1,7.712,7.292a11.956,11.956,0,0,1,7.932-3.085A11.215,11.215,0,0,1,26.22,15.665v92.1a11.329,11.329,0,0,0-6.61-2.2,11.017,11.017,0,0,0,0,22.034,11.083,11.083,0,0,0,10.8-8.814H80.424l8.153,8.153a2.13,2.13,0,0,0,3.085,0,2.13,2.13,0,0,0,0-3.085l-4.847-5.068A6.652,6.652,0,0,0,92.542,112.173Zm-30.847-63.9v2.2a2.2,2.2,0,1,1-4.407,0v-2.2Zm-13.22,0h4.407v2.2a6.61,6.61,0,0,0,13.22,0v-2.2h4.407V70.309H48.475Zm8.814,26.441h4.407V85.732a2.2,2.2,0,0,1-4.407,0Zm-11.017,0h6.61V85.732a6.61,6.61,0,0,0,13.22,0V74.716h13.22v30.847H39.661V74.716ZM19.83,123.19a6.61,6.61,0,0,1,0-13.22,6.61,6.61,0,1,1,0,13.22Zm66.1-8.814H30.847V21.834h2.2a2.082,2.082,0,0,1,2.2,2.2v83.729a2.082,2.082,0,0,0,2.2,2.2H85.932a2.2,2.2,0,0,1,0,4.407Z" transform="translate(0 0)"/><circle class="b" cx="2.203" cy="2.203" r="2.203" transform="translate(17.627 114.376)"/></g></g></svg>