<svg xmlns="http://www.w3.org/2000/svg" width="92.954" height="86.543" viewBox="0 0 92.954 86.543"><defs><style>.a{fill:#009ef2;}.b{fill:#322153;}</style></defs><path class="a" d="M84.874,56l-6.411,6.411L72.053,56,40,88.053H57.789c3.526-3.205,8.654-6.411,14.264-6.411s10.9,3.205,14.264,6.411h30.611Z" transform="translate(-31.987 -47.987)"/><g transform="translate(0 0)"><path class="b" d="M329.616,292.808a4.808,4.808,0,1,0-4.808,4.808A4.722,4.722,0,0,0,329.616,292.808Zm-4.808,1.6a1.6,1.6,0,1,1,1.6-1.6A1.514,1.514,0,0,1,324.808,294.411Z" transform="translate(-255.894 -233.51)"/><path class="b" d="M84.941,35.232H72.761L54.01,16.481a1.549,1.549,0,0,0-2.244,0L46.477,21.77l-5.289-5.289a1.549,1.549,0,0,0-2.244,0L20.193,35.232H8.013A7.935,7.935,0,0,0,0,43.245V94.53a7.935,7.935,0,0,0,8.013,8.013H84.941a7.935,7.935,0,0,0,8.013-8.013V43.245A7.935,7.935,0,0,0,84.941,35.232Zm0,3.205a4.722,4.722,0,0,1,4.808,4.808,4.838,4.838,0,0,1-4.167,4.808l-9.616-9.616ZM52.888,19.846,71,37.956h0l10.1,10.1H72.761l-24.04-24.04Zm-12.821,0,5.289,5.289L68.273,48.053h-13.3c-2.885-2.564-8.494-6.411-14.9-6.411-6.571,0-12.02,3.846-14.9,6.411H11.86l10.1-10.1h0Zm9.616,28.207H30.45a18.585,18.585,0,0,1,9.616-3.205A18.585,18.585,0,0,1,49.682,48.053ZM8.013,38.437h8.975L7.372,48.053a4.838,4.838,0,0,1-4.167-4.808A4.722,4.722,0,0,1,8.013,38.437Zm76.928,60.9H8.013A4.722,4.722,0,0,1,3.205,94.53V49.656a8.24,8.24,0,0,0,4.808,1.6H84.941a8.24,8.24,0,0,0,4.808-1.6v30.45H66.35L61.542,75.3,66.35,70.49H84.941a1.6,1.6,0,1,0,0-3.205H65.709a1.455,1.455,0,0,0-1.122.481l-6.411,6.411a1.549,1.549,0,0,0,0,2.244l6.411,6.411a1.455,1.455,0,0,0,1.122.481h24.04V94.53A4.722,4.722,0,0,1,84.941,99.338Z" transform="translate(0 -16)"/><path class="b" d="M141.3,272.481,128.481,285.3a1.549,1.549,0,0,0,0,2.244,1.549,1.549,0,0,0,2.244,0l12.821-12.821a1.587,1.587,0,0,0-2.244-2.244Z" transform="translate(-102.357 -220.715)"/><path class="b" d="M129.6,281.616a1.455,1.455,0,0,0,1.122-.481l6.411-6.411a1.587,1.587,0,1,0-2.244-2.244l-6.411,6.411a1.549,1.549,0,0,0,0,2.244A1.455,1.455,0,0,0,129.6,281.616Z" transform="translate(-102.357 -220.715)"/><path class="b" d="M166.891,304.481l-6.411,6.411a1.549,1.549,0,0,0,0,2.244,1.549,1.549,0,0,0,2.244,0l6.411-6.411a1.587,1.587,0,0,0-2.244-2.244Z" transform="translate(-127.947 -246.304)"/><path class="b" d="M40.013,374.411a4.989,4.989,0,0,1-3.526-1.282,5.636,5.636,0,0,1-1.282-3.526,1.6,1.6,0,0,0-3.205,0,9.376,9.376,0,0,0,2.244,5.93,8.447,8.447,0,0,0,5.77,2.083,1.6,1.6,0,1,0,0-3.205Z" transform="translate(-25.589 -297.483)"/></g></svg>