<svg xmlns="http://www.w3.org/2000/svg" width="812" height="657.789" viewBox="0 0 812 657.789"><defs><style>.a{fill:#f2f2f2;}.b{fill:#3f3d56;}.c{fill:#ffcc45;opacity:0.3;}.d,.e{fill:#23cc6b;}.e{opacity:0.4;}.f{fill:#2f2e41;}.g{fill:#ffb8b8;}.h{fill:#d0cde1;}</style></defs><path class="a" d="M128.947,0,75.254,104.727H86.093v85.4H31.469L0,251.506,389.926,451.421,518.874,199.915Z"/><rect class="b" width="597" height="300" transform="translate(118 67.789)"/><rect class="c" width="441.237" height="1.017" transform="translate(201.486 175.894)"/><rect class="c" width="441" height="1" transform="translate(202 201.789)"/><rect class="c" width="441" height="1" transform="translate(202 251.789)"/><rect class="c" width="441" height="1" transform="translate(202 274.789)"/><rect class="c" width="441" height="1" transform="translate(202 226.789)"/><ellipse class="b" cx="189" cy="17.5" rx="189" ry="17.5" transform="translate(387 622.789)"/><path class="d" d="M210.745,272.44l-1.4-1.472,65.678-62.6,57.9,41.645,46.819-51.907,20.53,17.45,55.845-33.508,62.031,41.693L615.5,168.364l1,1.767-98.452,56-62-41.675L400.059,218.05l-20.137-17.117-46.715,51.794L275.2,211Z" transform="translate(3.491 2.808)"/><path class="b" d="M597.44,722.922c4.778,17.664,21.145,28.6,21.145,28.6s8.62-17.7,3.841-35.362-21.145-28.6-21.145-28.6S592.661,705.259,597.44,722.922Z" transform="translate(-194.067 -117.139)"/><path class="d" d="M604.86,718.835c13.112,12.764,14.713,32.385,14.713,32.385s-19.657-1.073-32.769-13.837S572.091,705,572.091,705,591.748,706.072,604.86,718.835Z" transform="translate(-194.465 -116.849)"/><circle class="e" cx="34" cy="34" r="34" transform="translate(744 20.789)"/><circle class="e" cx="24" cy="24" r="24" transform="translate(691 46.789)"/><ellipse class="e" cx="12.5" cy="13" rx="12.5" ry="13" transform="translate(673 495.789)"/><circle class="e" cx="10" cy="10" r="10" transform="translate(459 564.789)"/><ellipse class="e" cx="12.5" cy="13" rx="12.5" ry="13" transform="translate(424 433.789)"/><circle class="d" cx="13.217" cy="13.217" r="13.217" transform="translate(605.106 163.185)"/><path class="f" d="M724.593,535.488l-11.2,1.245s-4.98,22.409,0,52.287,11.2,59.756,11.2,59.756,4.98,97.1,7.47,98.349,24.9,8.714,26.143,1.245,1.245-178.024,1.245-178.024l17.429,82.165s2.49,103.328,7.469,103.328,21.164-1.245,21.164-9.959,3.735-123.247,3.735-123.247-1.245-84.655-6.225-87.144S724.593,535.488,724.593,535.488Z" transform="translate(-192.146 -119.694)"/><path class="f" d="M734.45,739.971s-11.2-1.245-13.694,0-6.225,9.959,0,14.939,22.409,12.449,27.388,12.449a25.756,25.756,0,0,0,9.959-2.49l-2.49-21.164Z" transform="translate(-192.043 -116.275)"/><path class="f" d="M783.149,746.231l1.245,17.429s16.184,2.49,17.429,0,13.694-8.714,14.939-9.959,2.49-14.939-4.98-16.184-9.959,2.49-9.959,2.49Z" transform="translate(-190.946 -116.311)"/><path class="g" d="M680.725,432.612s-29.878,28.633-26.143,43.572S688.195,534.7,688.195,534.7s28.633,14.939,32.368,0-19.919-11.2-19.919-11.2L681.97,478.674,703.134,448.8Z" transform="translate(-193.095 -121.391)"/><path class="g" d="M811.847,391.37s27.218-17.5,26.588-29.527S821.4,311.9,821.4,311.9s-12.836-26.687-17.939-15.781,6.707,22.516,6.707,22.516l7.622,37.192-20.716,19.763Z" transform="translate(-190.714 -123.711)"/><circle class="g" cx="22.409" cy="22.409" r="22.409" transform="translate(531.202 197.933)"/><path class="g" d="M734.169,356.822l3.735,23.654,27.388-4.98s-1.245-23.654-1.245-26.143S734.169,356.822,734.169,356.822Z" transform="translate(-191.763 -122.786)"/><path class="h" d="M733.5,380.048s31.123-7.47,34.858-4.98,22.409,4.98,22.409,4.98l21.164,32.368L805.7,453.5s-1.245,65.981,1.245,77.185,16.184,12.449-12.449,14.939-33.613-1.245-53.532,3.735-36.1-2.49-31.123-7.469,13.694-84.655,3.735-92.124S699.883,403.7,699.883,403.7,733.5,386.273,733.5,380.048Z" transform="translate(-192.334 -122.359)"/><path class="h" d="M785.6,383.816l3.735-3.735,7.469-7.47s24.276,10.582,23.031,14.317-9.337,25.521-9.337,25.521l-11.2,3.735Z" transform="translate(-190.905 -122.392)"/><path class="h" d="M715.251,405.714l-14.939-2.49s-11.2,12.449-14.939,17.429-11.2,17.429-11.2,17.429l26.143,18.674,19.919-21.164Z" transform="translate(-192.763 -121.881)"/><path class="f" d="M753.467,316.615l-.23-1.8a14.112,14.112,0,0,0-4.485.7,7.369,7.369,0,0,1,.277-3.226,14.343,14.343,0,0,0-4.151,1.8l-.905-3.276-12.445,6.133c-4.467,2.2-9.177,4.621-11.731,8.9-2.847,4.767-2.352,10.893-.405,16.094s5.18,9.8,7.773,14.712a36.752,36.752,0,0,0,3.532,6.012c4.7,5.856,13.842,7.039,20.465,3.5a11.843,11.843,0,0,0,5.671-5.836,37.937,37.937,0,0,0,1.133-4.833c.819-3.346,1.77-10.254,4.488-12.371,1.2-.932,3.567,2.157,4.559,1.009,2.547-2.948,2.013-7.494.431-11.055a80.67,80.67,0,0,0-5.31-10.358C761.277,321.4,753.439,316.4,753.467,316.615Z" transform="translate(-192.036 -123.422)"/><rect class="b" width="65" height="65" transform="translate(13 116.789)"/></svg>